<?xml version="1.0" encoding="UTF-8"?>
<svg width="700pt" height="700pt" version="1.1" viewBox="0 0 700 700" xmlns="http://www.w3.org/2000/svg" xmlns:xlink="http://www.w3.org/1999/xlink">
 <defs>
  <symbol id="w" overflow="visible">
   <path d="m25.703-1.5312c-1.3242 0.6875-2.7031 1.2031-4.1406 1.5469-1.4375 0.35156-2.9375 0.53125-4.5 0.53125-4.6562 0-8.3516-1.3008-11.078-3.9062-2.7188-2.6016-4.0781-6.1328-4.0781-10.594 0-4.4688 1.3594-8.0039 4.0781-10.609 2.7266-2.6016 6.4219-3.9062 11.078-3.9062 1.5625 0 3.0625 0.17969 4.5 0.53125 1.4375 0.34375 2.8164 0.85938 4.1406 1.5469v5.7812c-1.3438-0.90625-2.668-1.5703-3.9688-2-1.293-0.42578-2.6562-0.64062-4.0938-0.64062-2.5742 0-4.6016 0.82812-6.0781 2.4844-1.4688 1.6484-2.2031 3.918-2.2031 6.8125 0 2.8867 0.73438 5.1523 2.2031 6.7969 1.4766 1.6484 3.5039 2.4688 6.0781 2.4688 1.4375 0 2.8008-0.20703 4.0938-0.625 1.3008-0.42578 2.625-1.0977 3.9688-2.0156z"/>
  </symbol>
  <symbol id="d" overflow="visible">
   <path d="m18.812-15.266c-0.59375-0.26953-1.1836-0.47266-1.7656-0.60938-0.57422-0.13281-1.1562-0.20312-1.75-0.20312-1.7188 0-3.0469 0.55859-3.9844 1.6719-0.92969 1.1055-1.3906 2.6836-1.3906 4.7344v9.6719h-6.7031v-20.984h6.7031v3.4531c0.86328-1.375 1.8516-2.375 2.9688-3 1.125-0.63281 2.4609-0.95312 4.0156-0.95312 0.22656 0 0.47266 0.011719 0.73438 0.03125 0.25781 0.023437 0.64062 0.0625 1.1406 0.125z"/>
  </symbol>
  <symbol id="b" overflow="visible">
   <path d="m24.156-10.547v1.9062h-15.672c0.16406 1.5742 0.73438 2.7578 1.7031 3.5469 0.97656 0.78125 2.3359 1.1719 4.0781 1.1719 1.4141 0 2.8633-0.20703 4.3438-0.625 1.4766-0.41406 3-1.0469 4.5625-1.8906v5.1562c-1.5859 0.60547-3.1719 1.0586-4.7656 1.3594-1.5859 0.3125-3.168 0.46875-4.75 0.46875-3.8047 0-6.7578-0.96094-8.8594-2.8906-2.1055-1.9375-3.1562-4.6445-3.1562-8.125 0-3.4258 1.0312-6.1172 3.0938-8.0781 2.0703-1.957 4.9219-2.9375 8.5469-2.9375 3.2891 0 5.9258 0.99609 7.9062 2.9844 1.9766 1.9805 2.9688 4.6328 2.9688 7.9531zm-6.8906-2.2344c0-1.2695-0.37109-2.2969-1.1094-3.0781-0.74219-0.78125-1.7109-1.1719-2.9062-1.1719-1.3047 0-2.3594 0.37109-3.1719 1.1094-0.8125 0.73047-1.3203 1.7773-1.5156 3.1406z"/>
  </symbol>
  <symbol id="f" overflow="visible">
   <path d="m12.625-9.4375c-1.3984 0-2.4492 0.24219-3.1562 0.71875-0.71094 0.46875-1.0625 1.168-1.0625 2.0938 0 0.84375 0.28125 1.5078 0.84375 1.9844 0.57031 0.48047 1.3633 0.71875 2.375 0.71875 1.2578 0 2.3203-0.44531 3.1875-1.3438 0.86328-0.90625 1.2969-2.0391 1.2969-3.4062v-0.76562zm10.25-2.5312v11.969h-6.7656v-3.1094c-0.89844 1.2734-1.9062 2.1992-3.0312 2.7812s-2.4961 0.875-4.1094 0.875c-2.168 0-3.9336-0.63281-5.2969-1.9062-1.3555-1.2695-2.0312-2.9141-2.0312-4.9375 0-2.457 0.84375-4.2578 2.5312-5.4062 1.6953-1.1445 4.3594-1.7188 7.9844-1.7188h3.9531v-0.53125c0-1.0625-0.42188-1.8359-1.2656-2.3281-0.83594-0.5-2.1367-0.75-3.9062-0.75-1.4375 0-2.7773 0.14844-4.0156 0.4375-1.2305 0.28125-2.375 0.71484-3.4375 1.2969v-5.125c1.4375-0.34375 2.8789-0.60156 4.3281-0.78125 1.4453-0.1875 2.8945-0.28125 4.3438-0.28125 3.7812 0 6.5078 0.75 8.1875 2.25 1.6875 1.4922 2.5312 3.9141 2.5312 7.2656z"/>
  </symbol>
  <symbol id="a" overflow="visible">
   <path d="m10.547-26.938v5.9531h6.9062v4.7969h-6.9062v8.9062c0 0.96875 0.19141 1.625 0.57812 1.9688 0.38281 0.34375 1.1484 0.51562 2.2969 0.51562h3.4531v4.7969h-5.75c-2.6484 0-4.5234-0.55078-5.625-1.6562-1.1055-1.1016-1.6562-2.9766-1.6562-5.625v-8.9062h-3.3438v-4.7969h3.3438v-5.9531z"/>
  </symbol>
  <symbol id="n" overflow="visible">
   <path d="m17.5-17.906v-11.234h6.7344v29.141h-6.7344v-3.0312c-0.92969 1.2305-1.9492 2.1367-3.0625 2.7188-1.1055 0.57031-2.3906 0.85938-3.8594 0.85938-2.5859 0-4.7109-1.0234-6.375-3.0781-1.6562-2.0625-2.4844-4.707-2.4844-7.9375 0-3.2383 0.82812-5.8828 2.4844-7.9375 1.6641-2.0508 3.7891-3.0781 6.375-3.0781 1.4453 0 2.7266 0.29297 3.8438 0.875 1.125 0.58594 2.1484 1.4844 3.0781 2.7031zm-4.4219 13.578c1.4375 0 2.5312-0.51953 3.2812-1.5625 0.75781-1.0508 1.1406-2.5781 1.1406-4.5781s-0.38281-3.5195-1.1406-4.5625c-0.75-1.0508-1.8438-1.5781-3.2812-1.5781-1.4297 0-2.5234 0.52734-3.2812 1.5781-0.75 1.043-1.125 2.5625-1.125 4.5625s0.375 3.5273 1.125 4.5781c0.75781 1.043 1.8516 1.5625 3.2812 1.5625z"/>
  </symbol>
  <symbol id="m" overflow="visible">
   <path d="m14.391-4.3281c1.4258 0 2.5195-0.51953 3.2812-1.5625 0.75781-1.0508 1.1406-2.5781 1.1406-4.5781s-0.38281-3.5195-1.1406-4.5625c-0.76172-1.0508-1.8555-1.5781-3.2812-1.5781-1.4375 0-2.543 0.52734-3.3125 1.5781-0.77344 1.0547-1.1562 2.5742-1.1562 4.5625 0 1.9922 0.38281 3.5117 1.1562 4.5625 0.76953 1.0547 1.875 1.5781 3.3125 1.5781zm-4.4688-13.578c0.92578-1.2188 1.9531-2.1172 3.0781-2.7031 1.125-0.58203 2.4141-0.875 3.875-0.875 2.582 0 4.7031 1.0273 6.3594 3.0781 1.6641 2.0547 2.5 4.6992 2.5 7.9375 0 3.2305-0.83594 5.875-2.5 7.9375-1.6562 2.0547-3.7773 3.0781-6.3594 3.0781-1.4609 0-2.75-0.29297-3.875-0.875s-2.1523-1.4844-3.0781-2.7031v3.0312h-6.7031v-29.141h6.7031z"/>
  </symbol>
  <symbol id="l" overflow="visible">
   <path d="m0.46875-20.984h6.7031l5.6406 14.234 4.7969-14.234h6.7031l-8.8281 22.969c-0.88672 2.332-1.918 3.9609-3.0938 4.8906-1.1797 0.9375-2.7344 1.4062-4.6719 1.4062h-3.875v-4.4062h2.0938c1.1328 0 1.9609-0.18359 2.4844-0.54688 0.51953-0.35547 0.92188-1 1.2031-1.9375l0.1875-0.57812z"/>
  </symbol>
  <symbol id="e" overflow="visible">
   <path d="m22.984-27.078v5.9062c-1.543-0.67578-3.043-1.1914-4.5-1.5469-1.4609-0.35156-2.8398-0.53125-4.1406-0.53125-1.7188 0-2.9922 0.24219-3.8125 0.71875-0.82422 0.46875-1.2344 1.2031-1.2344 2.2031 0 0.75 0.27344 1.3398 0.82812 1.7656 0.55078 0.41797 1.5625 0.77344 3.0312 1.0625l3.0625 0.625c3.1133 0.625 5.3203 1.5742 6.625 2.8438 1.3125 1.2734 1.9688 3.0859 1.9688 5.4375 0 3.0859-0.91797 5.3828-2.75 6.8906-1.8242 1.5-4.6172 2.25-8.375 2.25-1.7734 0-3.5547-0.17188-5.3438-0.51562-1.7812-0.33203-3.5625-0.83203-5.3438-1.5v-6.0781c1.7812 0.94922 3.5039 1.6641 5.1719 2.1406 1.6641 0.48047 3.2734 0.71875 4.8281 0.71875 1.5703 0 2.7734-0.25781 3.6094-0.78125 0.84375-0.51953 1.2656-1.2695 1.2656-2.25 0-0.875-0.28906-1.5469-0.85938-2.0156-0.5625-0.47656-1.6992-0.90625-3.4062-1.2812l-2.7812-0.60938c-2.8047-0.60156-4.8516-1.5625-6.1406-2.875-1.293-1.3125-1.9375-3.0781-1.9375-5.2969 0-2.7812 0.89453-4.9219 2.6875-6.4219 1.8008-1.5 4.3906-2.25 7.7656-2.25 1.5391 0 3.1172 0.11719 4.7344 0.34375 1.625 0.23047 3.3047 0.57812 5.0469 1.0469z"/>
  </symbol>
  <symbol id="k" overflow="visible">
   <path d="m22.656-17.5c0.85156-1.2891 1.8633-2.2734 3.0312-2.9531 1.1641-0.6875 2.4453-1.0312 3.8438-1.0312 2.4141 0 4.2539 0.74609 5.5156 2.2344 1.2578 1.4805 1.8906 3.6367 1.8906 6.4688v12.781h-6.75v-10.938c0.019531-0.16406 0.03125-0.33203 0.03125-0.5 0.007812-0.17578 0.015625-0.42578 0.015625-0.75 0-1.4883-0.21875-2.5664-0.65625-3.2344-0.4375-0.66406-1.1484-1-2.125-1-1.2734 0-2.2578 0.52734-2.9531 1.5781-0.6875 1.043-1.043 2.5586-1.0625 4.5469v10.297h-6.75v-10.938c0-2.3203-0.20312-3.8164-0.60938-4.4844-0.39844-0.66406-1.1055-1-2.125-1-1.2812 0-2.2773 0.52734-2.9844 1.5781-0.69922 1.0547-1.0469 2.5586-1.0469 4.5156v10.328h-6.7344v-20.984h6.7344v3.0781c0.82031-1.1875 1.7656-2.0781 2.8281-2.6719 1.0703-0.60156 2.2539-0.90625 3.5469-0.90625 1.4453 0 2.7227 0.35156 3.8281 1.0469 1.1133 0.69922 1.957 1.6797 2.5312 2.9375z"/>
  </symbol>
  <symbol id="j" overflow="visible">
   <path d="m19.609-20.328v5.0938c-1.4375-0.59375-2.8242-1.0391-4.1562-1.3438-1.3359-0.30078-2.5938-0.45312-3.7812-0.45312-1.2734 0-2.2188 0.16406-2.8438 0.48438-0.61719 0.3125-0.92188 0.80469-0.92188 1.4688 0 0.54297 0.23438 0.96094 0.70312 1.25 0.46875 0.28125 1.3047 0.49219 2.5156 0.625l1.1875 0.17188c3.4258 0.4375 5.7344 1.1562 6.9219 2.1562 1.1875 0.99219 1.7812 2.5547 1.7812 4.6875 0 2.2422-0.82422 3.9219-2.4688 5.0469-1.6484 1.125-4.1094 1.6875-7.3906 1.6875-1.3867 0-2.8203-0.10938-4.2969-0.32812-1.4805-0.21875-3-0.54688-4.5625-0.98438v-5.0938c1.3438 0.64844 2.7109 1.1328 4.1094 1.4531 1.4062 0.32422 2.832 0.48438 4.2812 0.48438 1.3125 0 2.2969-0.17578 2.9531-0.53125 0.66406-0.36328 1-0.89844 1-1.6094 0-0.60156-0.23047-1.0508-0.6875-1.3438-0.44922-0.28906-1.3555-0.51953-2.7188-0.6875l-1.1719-0.14062c-2.9922-0.375-5.0859-1.0664-6.2812-2.0781-1.1992-1.0195-1.7969-2.5547-1.7969-4.6094 0-2.2266 0.75781-3.8789 2.2812-4.9531 1.5312-1.0703 3.8672-1.6094 7.0156-1.6094 1.2266 0 2.5234 0.09375 3.8906 0.28125 1.3633 0.1875 2.8438 0.48047 4.4375 0.875z"/>
  </symbol>
  <symbol id="i" overflow="visible">
   <path d="m24.312-12.781v12.781h-6.75v-9.7344c0-1.8438-0.042969-3.1016-0.125-3.7812-0.074219-0.6875-0.21094-1.1953-0.40625-1.5312-0.27344-0.4375-0.63281-0.77344-1.0781-1.0156-0.44922-0.23828-0.96094-0.35938-1.5312-0.35938-1.3984 0-2.4961 0.54297-3.2969 1.625-0.80469 1.0742-1.2031 2.5625-1.2031 4.4688v10.328h-6.7031v-29.141h6.7031v11.234c1.0078-1.2188 2.082-2.1172 3.2188-2.7031 1.1445-0.58203 2.3984-0.875 3.7656-0.875 2.4258 0 4.2656 0.74609 5.5156 2.2344 1.2578 1.4805 1.8906 3.6367 1.8906 6.4688z"/>
  </symbol>
  <symbol id="v" overflow="visible">
   <path d="m3.2188-20.984h6.7031v20.984h-6.7031zm0-8.1562h6.7031v5.4688h-6.7031z"/>
  </symbol>
  <symbol id="h" overflow="visible">
   <path d="m24.312-12.781v12.781h-6.75v-9.7812c0-1.8125-0.042969-3.0547-0.125-3.7344-0.074219-0.6875-0.21094-1.1953-0.40625-1.5312-0.27344-0.4375-0.63281-0.77344-1.0781-1.0156-0.44922-0.23828-0.96094-0.35938-1.5312-0.35938-1.3984 0-2.4961 0.54297-3.2969 1.625-0.80469 1.0742-1.2031 2.5625-1.2031 4.4688v10.328h-6.7031v-20.984h6.7031v3.0781c1.0078-1.2188 2.082-2.1172 3.2188-2.7031 1.1445-0.58203 2.3984-0.875 3.7656-0.875 2.4258 0 4.2656 0.74609 5.5156 2.2344 1.2578 1.4805 1.8906 3.6367 1.8906 6.4688z"/>
  </symbol>
  <symbol id="u" overflow="visible">
   <path d="m17.5-3.5625c-0.92969 1.2305-1.9492 2.1328-3.0625 2.7031-1.1055 0.57422-2.3906 0.85938-3.8594 0.85938-2.5547 0-4.668-1.0039-6.3438-3.0156-1.6797-2.0195-2.5156-4.5938-2.5156-7.7188 0-3.1328 0.83594-5.7031 2.5156-7.7031 1.6758-2.0078 3.7891-3.0156 6.3438-3.0156 1.4688 0 2.7539 0.29297 3.8594 0.875 1.1133 0.57422 2.1328 1.4766 3.0625 2.7031v-3.1094h6.7344v18.875c0 3.3633-1.0703 5.9375-3.2031 7.7188-2.125 1.7812-5.2109 2.6719-9.25 2.6719-1.3125 0-2.5859-0.10547-3.8125-0.3125-1.2188-0.19922-2.4453-0.5-3.6719-0.90625v-5.2344c1.1641 0.67578 2.3125 1.1797 3.4375 1.5156 1.125 0.33203 2.2539 0.5 3.3906 0.5 2.1953 0 3.8047-0.48438 4.8281-1.4531 1.0312-0.96094 1.5469-2.457 1.5469-4.5zm-4.4219-13.047c-1.3867 0-2.4688 0.51172-3.25 1.5312-0.77344 1.0234-1.1562 2.4688-1.1562 4.3438 0 1.9297 0.375 3.3867 1.125 4.375 0.75 0.99219 1.8438 1.4844 3.2812 1.4844 1.3945 0 2.4766-0.50781 3.25-1.5312 0.78125-1.0195 1.1719-2.4609 1.1719-4.3281 0-1.875-0.39062-3.3203-1.1719-4.3438-0.77344-1.0195-1.8555-1.5312-3.25-1.5312z"/>
  </symbol>
  <symbol id="c" overflow="visible">
   <path d="m13.203-16.688c-1.4922 0-2.625 0.53906-3.4062 1.6094-0.77344 1.0625-1.1562 2.6016-1.1562 4.6094 0 2.0117 0.38281 3.5547 1.1562 4.625 0.78125 1.0625 1.9141 1.5938 3.4062 1.5938 1.457 0 2.5703-0.53125 3.3438-1.5938 0.78125-1.0703 1.1719-2.6133 1.1719-4.625 0-2.0078-0.39062-3.5469-1.1719-4.6094-0.77344-1.0703-1.8867-1.6094-3.3438-1.6094zm0-4.7969c3.6133 0 6.4297 0.97656 8.4531 2.9219 2.0312 1.9492 3.0469 4.6484 3.0469 8.0938 0 3.4492-1.0156 6.1484-3.0469 8.0938-2.0234 1.9492-4.8398 2.9219-8.4531 2.9219-3.625 0-6.4609-0.97266-8.5-2.9219-2.043-1.9453-3.0625-4.6445-3.0625-8.0938 0-3.4453 1.0195-6.1445 3.0625-8.0938 2.0391-1.9453 4.875-2.9219 8.5-2.9219z"/>
  </symbol>
  <symbol id="g" overflow="visible">
   <path d="m20.172-20.328v5.4688c-0.90625-0.625-1.8242-1.082-2.75-1.375-0.91797-0.30078-1.8672-0.45312-2.8438-0.45312-1.875 0-3.3359 0.54688-4.375 1.6406-1.043 1.0938-1.5625 2.6211-1.5625 4.5781 0 1.9609 0.51953 3.4844 1.5625 4.5781 1.0391 1.0938 2.5 1.6406 4.375 1.6406 1.0391 0 2.0312-0.15625 2.9688-0.46875 0.94531-0.3125 1.8203-0.77344 2.625-1.3906v5.4844c-1.0547 0.39844-2.1211 0.6875-3.2031 0.875-1.0742 0.19531-2.1523 0.29688-3.2344 0.29688-3.793 0-6.7578-0.96875-8.8906-2.9062-2.1367-1.9453-3.2031-4.6484-3.2031-8.1094 0-3.457 1.0664-6.1562 3.2031-8.0938 2.1328-1.9453 5.0977-2.9219 8.8906-2.9219 1.0938 0 2.1719 0.10156 3.2344 0.29688 1.0703 0.1875 2.1406 0.47656 3.2031 0.85938z"/>
  </symbol>
  <symbol id="t" overflow="visible">
   <path d="m3.2188-29.141h6.7031v15.859l7.7188-7.7031h7.7969l-10.25 9.6406 11.047 11.344h-8.125l-8.1875-8.75v8.75h-6.7031z"/>
  </symbol>
  <symbol id="s" overflow="visible">
   <path d="m17.031-29.141v4.3906h-3.7188c-0.94922 0-1.6094 0.17188-1.9844 0.51562s-0.5625 0.94531-0.5625 1.7969v1.4531h5.7344v4.7969h-5.7344v16.188h-6.7031v-16.188h-3.3281v-4.7969h3.3281v-1.4531c0-2.2812 0.63281-3.9688 1.9062-5.0625 1.2812-1.0938 3.2539-1.6406 5.9219-1.6406z"/>
  </symbol>
  <symbol id="r" overflow="visible">
   <path d="m3.5156-27.969h8.0625l10.172 19.188v-19.188h6.8281v27.969h-8.0469l-10.172-19.188v19.188h-6.8438z"/>
  </symbol>
  <symbol id="q" overflow="visible">
   <path d="m3-8.1719v-12.812h6.7344v2.1094c0 1.1367-0.007813 2.5625-0.015625 4.2812-0.011719 1.7109-0.015625 2.8555-0.015625 3.4375 0 1.6797 0.039063 2.8906 0.125 3.6406 0.09375 0.74219 0.24219 1.2773 0.45312 1.6094 0.26953 0.4375 0.62891 0.77734 1.0781 1.0156 0.44531 0.24219 0.95703 0.35938 1.5312 0.35938 1.3945 0 2.4883-0.53516 3.2812-1.6094 0.80078-1.0703 1.2031-2.5664 1.2031-4.4844v-10.359h6.7188v20.984h-6.7188v-3.0312c-1.0117 1.2188-2.0859 2.1211-3.2188 2.7031-1.125 0.58203-2.3672 0.875-3.7188 0.875-2.4297 0-4.2773-0.74219-5.5469-2.2344-1.2617-1.4883-1.8906-3.6484-1.8906-6.4844z"/>
  </symbol>
  <symbol id="p" overflow="visible">
   <path d="m3.5156-27.969h11.969c3.5625 0 6.2969 0.79297 8.2031 2.375 1.9062 1.5859 2.8594 3.8359 2.8594 6.75 0 2.9375-0.95312 5.1992-2.8594 6.7812-1.9062 1.5742-4.6406 2.3594-8.2031 2.3594h-4.75v9.7031h-7.2188zm7.2188 5.2344v7.8125h3.9844c1.3945 0 2.4727-0.33594 3.2344-1.0156 0.76953-0.6875 1.1562-1.6562 1.1562-2.9062s-0.38672-2.207-1.1562-2.875c-0.76172-0.67578-1.8398-1.0156-3.2344-1.0156z"/>
  </symbol>
  <symbol id="o" overflow="visible">
   <path d="m3.2188-20.984h6.7031v20.609c0 2.8125-0.67969 4.957-2.0312 6.4375-1.3438 1.4766-3.293 2.2188-5.8438 2.2188h-3.3281v-4.4062h1.1719c1.2695 0 2.1406-0.28906 2.6094-0.85938 0.47656-0.57422 0.71875-1.7031 0.71875-3.3906zm0-8.1562h6.7031v5.4688h-6.7031z"/>
  </symbol>
 </defs>
 <g>
  <path d="m404.26 228.84c-8.0234 1.6797-13.352 9.4258-12.324 19.039 1.0039 9.2227 9.332 17.465 16.883 20.203 2.0078 14.465 6.3672 30.246 15.828 43.844 29.395 42.254 81.422 33.543 99.906-1.3164 6.5547-12.363 9.1562-26.078 11.523-39.723 19.879-2.8828 21.375-31.059 9.5117-38.316 9.8477-35.109-6.8516-68.809-35.637-79.387-18.055-6.6602-40.969-1.5508-55.004 11.797-26.664-7.25-57.012 17.461-50.688 63.859zm2.1328 11.375c0.28516 1.25 0.56641 2.4844 0.85938 3.6602-0.17969 2.1133 0.14062 8.0586 0.23438 9.7578-6.1289-6.1211-4.6445-12.348-1.0938-13.418zm27.691 65.141c-9.0547-13.023-13.898-30.016-15.117-52.934 2.4766-1.4141 23.238-8.3906 40.699-30.695 2.6523 14.148-2.2969 17.297 2.3164 21.086 1.5742 1.293 3.707 1.6406 5.625 0.95703 15.035-5.5039 28.02-15.648 37.082-28.691 1.9609 9.6641 2.3672 19.641 1.1602 29.414-0.97266 7.8867 12.234 8.2617 19.293 6.9531 0.050781 0.34375 0.21484 0.65625 0.32812 0.98438-1.0352 14.988-2.6797 30.672-8.707 44.797-6.4961 15.223-18 26.523-30.773 30.234-19.965 5.7812-41.211-6.7383-51.906-22.105zm102.43-46.426c0.21094-2.5234 0.39844-5.0195 0.55859-7.4453 1.3906-2.1367 2.6523-4.3555 3.793-6.6562 1.5195 5.2852 0.69531 11.508-4.3516 14.102zm-121.36-48.914c2.6406-26.945 23.398-39.754 39.172-33.113 2.2617 0.94922 4.8984 0.35547 6.5312-1.5 10.496-11.863 30.309-16.883 45.121-11.426 25.578 9.4023 38.641 41.645 26.266 72.074-4.0078 3.1328-9.375 4.75-14.449 4.4141 0.98828-14.258-1.0273-28.734-5.9023-42.184-1.6953-4.6641-8.457-5.3359-10.66-0.38672-5.8867 13.18-16.496 24.418-29.254 31.309-0.17188-7.8438-1.918-15.688-5.1484-22.793-1.7734-3.9375-7.6016-4.8555-10.172-0.58594-8.9922 15.008-22.566 27.047-38.43 34.344-2.9102-12.07-3.918-21.539-3.0742-30.152z"/>
  <path d="m336.79 455.31c-1.75 4.375 0.78125 9.6641 6.8242 10.473l4.6523 9.9062c29.461 2.457 64.691 3.8945 100.94 4.6719 4.3477 6.0664 19.312 25.664 25.898 32.254 2.6406 2.6406 7.0781 2.1094 9.0117-1.1211 1.6406-2.7656 12.488-18.973 19.941-30.441 23.531 0.17187 46.496 0.10547 67.523-0.046876 7.3945-0.0625 17.965-5.4102 21.621-12.211 2.9297-2.207 3.75-5.6797 3.1562-8.2656-28.688-137.67-204.62-135.8-259.57-5.2188zm247.53 4c-21.555 1.3594-55.371 1.8398-76.859 1.9336-8.4727-20.117-13.602-36.727-23.105-63.152 12.43-3.918 19.113-13.922 19.355-25.539 43.91 12.766 70.973 44.031 80.609 86.758zm-92.25-89.465c2.3359 14.902-15.293 22.27-24.125 15.883-3.7344-2.6992-7.293-9.1875-7.0469-16.438 10.164-1.4492 20.703-1.25 31.172 0.55469zm-42.656 1.6836c0.55859 11.562 7.1523 23.758 19.375 27.113-8.8789 23.047-14.789 39.816-23.27 62.031-47.672-1.0977-72.422-3.2461-96.012-5.7461 18.844-41.438 52.473-71.539 99.906-83.398zm28.988 127.57c-6.3242-7.457-19.484-24.504-23.5-30.695 7.0469-18.285 14.516-39.082 21.68-58.012 6.9375 19.883 13.312 39.324 21.59 58.48-4.4922 7.2969-15.422 23.605-19.77 30.227z"/>
  <path d="m158.34 252c2.0469 13.684 14.922 24.309 28.82 24.309 16.016 0 29.414-14.273 28.664-29.789-0.32031-6.7773-3.9609-13.859-9.6523-19.457 8.6875-16.855 18.324-33.395 28.727-49.25 7.2539 1.7461 14.465 0.74609 20.699-3.5312l39.004 39.969c-8.4062 11.914-8.4727 25.379 1.2734 35.914 1.6445 2.5273 3.4023 4.7617 4.2148 5.5039 7.7266 7.0898 19.988 9.3398 29.957 5.5039 12.156-4.6797 21.031-18.551 15.785-32.816-0.71094-5.5977-3.4688-11.266-7.793-16.086 10.949-12.242 20.957-25.387 29.852-39.129 3.5352 1.0469 6.7969 1.5195 10.508 1.1562 23.402-2.2109 36.922-31.684 14.863-50.793-13.355-11.543-29.125-9.2656-39.336 3.793-5.4102 6.9258-7.9844 15.453-6.8906 22.809 1.0586 7.0938 5.0664 13.324 10.582 17.719-8.5234 13.062-18.07 25.559-28.516 37.195-9.5508-5.2773-18.27-4.4375-26.352 1.0938l-39.363-40.34c3.0352-5.4766 3.5586-10.898 2.1289-16.301 0.011719-0.5625 0.125-1.1094 0.097656-1.6758-0.6875-14.516-16.098-29.969-31.801-28.512-15.379 1.4766-27.875 19.293-25.688 33.988v0.003906c1.3516 9.0469 7.4805 16.676 15.469 20.863-9.6914 14.957-18.715 30.469-26.922 46.277-4.1484-1.8867-8.4492-2.8164-12.633-2.4141-15.387 1.4805-27.891 19.273-25.699 33.996zm176.3-21.344c0.39844 8.4297-7.0859 16.852-15.703 17.668-12.859 1.2656-26.184-13.32-14.332-28.457 12.57-16.105 29.52 0.40625 30.035 10.789zm-99.734-99.91c8.5664-0.87891 18.805 9.2148 19.207 17.609 0.39844 8.4297-7.0859 16.848-15.703 17.664-8.8086 0.83984-17.664-6.0664-18.91-14.438-1.2344-8.2852 6.7266-20.012 15.406-20.836z"/>
  <path d="m404.25 309.12h0.32031c7.6094 0 7.6133-11.508 0-11.508h-21.762v-13.301c0-7.6094-11.508-7.6133-11.508 0v13.301h-79.004v-14.023c0-7.6094-11.508-7.6133-11.508 0v14.023h-69.59v-6.9961c0-7.6094-11.508-7.6133-11.508 0v6.9961h-69.191l0.09375-71.438h21.262c7.6094 0 7.6133-11.508 0-11.508h-21.246l0.09375-68.715h19.895c7.6094 0 7.6133-11.508 0-11.508h-19.883l0.082031-60.906h26.445c7.6094 0 7.6133-11.508 0-11.508l-26.43 0.003906 0.015625-10.566c0.007813-3.1797-2.5703-5.7578-5.7461-5.7617h-0.007812c-3.1758 0-5.7461 2.5703-5.7539 5.7461v1.3906l-13.508 13.242c-4.1523 4.0703-1.3711-7.4414-2.1836 248.56 0 4.0352 3.3359 7.3086 7.4531 7.3086h277.68c9.3125 0 12.273-7.0938 15.484-12.836z"/>
  <use x="70" y="675.070312" xlink:href="#w"/>
  <use x="98.148438" y="675.070312" xlink:href="#d"/>
  <use x="117.066406" y="675.070312" xlink:href="#b"/>
  <use x="143.078125" y="675.070312" xlink:href="#f"/>
  <use x="168.960938" y="675.070312" xlink:href="#a"/>
  <use x="187.296875" y="675.070312" xlink:href="#b"/>
  <use x="213.3125" y="675.070312" xlink:href="#n"/>
  <use x="254.121094" y="675.070312" xlink:href="#m"/>
  <use x="281.578125" y="675.070312" xlink:href="#l"/>
  <use x="319.933594" y="675.070312" xlink:href="#e"/>
  <use x="347.558594" y="675.070312" xlink:href="#k"/>
  <use x="387.523438" y="675.070312" xlink:href="#f"/>
  <use x="413.40625" y="675.070312" xlink:href="#j"/>
  <use x="436.238281" y="675.070312" xlink:href="#i"/>
  <use x="463.542969" y="675.070312" xlink:href="#v"/>
  <use x="476.691406" y="675.070312" xlink:href="#h"/>
  <use x="503.996094" y="675.070312" xlink:href="#u"/>
  <use x="544.808594" y="675.070312" xlink:href="#e"/>
  <use x="572.433594" y="675.070312" xlink:href="#a"/>
  <use x="590.765625" y="675.070312" xlink:href="#c"/>
  <use x="617.117188" y="675.070312" xlink:href="#g"/>
  <use x="639.855469" y="675.070312" xlink:href="#t"/>
  <use x="665.363281" y="675.070312" xlink:href="#j"/>
  <use x="70" y="713.425781" xlink:href="#s"/>
  <use x="86.6875" y="713.425781" xlink:href="#d"/>
  <use x="105.601562" y="713.425781" xlink:href="#c"/>
  <use x="131.953125" y="713.425781" xlink:href="#k"/>
  <use x="185.273438" y="713.425781" xlink:href="#a"/>
  <use x="203.609375" y="713.425781" xlink:href="#i"/>
  <use x="230.917969" y="713.425781" xlink:href="#b"/>
  <use x="270.285156" y="713.425781" xlink:href="#r"/>
  <use x="302.382812" y="713.425781" xlink:href="#c"/>
  <use x="328.734375" y="713.425781" xlink:href="#q"/>
  <use x="356.042969" y="713.425781" xlink:href="#h"/>
  <use x="396.703125" y="713.425781" xlink:href="#p"/>
  <use x="424.8125" y="713.425781" xlink:href="#d"/>
  <use x="443.730469" y="713.425781" xlink:href="#c"/>
  <use x="470.082031" y="713.425781" xlink:href="#o"/>
  <use x="483.226562" y="713.425781" xlink:href="#b"/>
  <use x="509.242187" y="713.425781" xlink:href="#g"/>
  <use x="531.976562" y="713.425781" xlink:href="#a"/>
 </g>
</svg>
