<?xml version="1.0" encoding="UTF-8"?>
<svg width="700pt" height="700pt" version="1.1" viewBox="0 0 700 700" xmlns="http://www.w3.org/2000/svg" xmlns:xlink="http://www.w3.org/1999/xlink">
 <defs>
  <symbol id="t" overflow="visible">
   <path d="m21.422-1.2812c-1.1055 0.57422-2.2578 1.0078-3.4531 1.2969-1.1992 0.28906-2.4492 0.4375-3.75 0.4375-3.8867 0-6.9648-1.082-9.2344-3.25-2.2617-2.1758-3.3906-5.1172-3.3906-8.8281 0-3.7266 1.1289-6.6758 3.3906-8.8438 2.2695-2.1758 5.3477-3.2656 9.2344-3.2656 1.3008 0 2.5508 0.14844 3.75 0.4375 1.1953 0.29297 2.3477 0.72656 3.4531 1.2969v4.8281c-1.1172-0.75781-2.2148-1.3164-3.2969-1.6719-1.0859-0.35156-2.2266-0.53125-3.4219-0.53125-2.1484 0-3.8359 0.6875-5.0625 2.0625-1.2188 1.375-1.8281 3.2734-1.8281 5.6875 0 2.4062 0.60938 4.2969 1.8281 5.6719 1.2266 1.3672 2.9141 2.0469 5.0625 2.0469 1.1953 0 2.3359-0.17578 3.4219-0.53125 1.082-0.35156 2.1797-0.91016 3.2969-1.6719z"/>
  </symbol>
  <symbol id="c" overflow="visible">
   <path d="m15.672-12.719c-0.49219-0.22656-0.98047-0.39453-1.4688-0.5-0.48047-0.11328-0.96484-0.17188-1.4531-0.17188-1.4375 0-2.5469 0.46484-3.3281 1.3906-0.77344 0.91797-1.1562 2.2344-1.1562 3.9531v8.0469h-5.5781v-17.484h5.5781v2.875c0.71875-1.1445 1.5391-1.9766 2.4688-2.5 0.9375-0.53125 2.0547-0.79688 3.3594-0.79688 0.1875 0 0.39062 0.011719 0.60938 0.03125 0.21875 0.011719 0.53516 0.042969 0.95312 0.09375z"/>
  </symbol>
  <symbol id="a" overflow="visible">
   <path d="m20.141-8.7812v1.5781h-13.062c0.13281 1.3125 0.60156 2.2969 1.4062 2.9531 0.8125 0.65625 1.9453 0.98438 3.4062 0.98438 1.1758 0 2.3789-0.17188 3.6094-0.51562 1.2383-0.35156 2.5078-0.88281 3.8125-1.5938v4.3125c-1.3242 0.5-2.6484 0.875-3.9688 1.125-1.3242 0.25781-2.6484 0.39062-3.9688 0.39062-3.1562 0-5.6172-0.80078-7.375-2.4062-1.75-1.6133-2.625-3.8672-2.625-6.7656 0-2.8516 0.85938-5.0977 2.5781-6.7344 1.7266-1.6328 4.0977-2.4531 7.1094-2.4531 2.75 0 4.9453 0.82812 6.5938 2.4844 1.6562 1.6562 2.4844 3.8711 2.4844 6.6406zm-5.75-1.8594c0-1.0625-0.3125-1.9141-0.9375-2.5625-0.61719-0.65625-1.4219-0.98438-2.4219-0.98438-1.0859 0-1.9648 0.30859-2.6406 0.92188-0.66797 0.60547-1.0859 1.4805-1.25 2.625z"/>
  </symbol>
  <symbol id="l" overflow="visible">
   <path d="m10.516-7.875c-1.168 0-2.043 0.19922-2.625 0.59375-0.58594 0.39844-0.875 0.98047-0.875 1.75 0 0.71094 0.23438 1.2656 0.70312 1.6719 0.46875 0.39844 1.125 0.59375 1.9688 0.59375 1.0508 0 1.9375-0.375 2.6562-1.125 0.71875-0.75781 1.0781-1.707 1.0781-2.8438v-0.64062zm8.5469-2.0938v9.9688h-5.6406v-2.5938c-0.75 1.0625-1.5938 1.8398-2.5312 2.3281-0.9375 0.47656-2.0742 0.71875-3.4062 0.71875-1.8125 0-3.2891-0.52344-4.4219-1.5781-1.125-1.0625-1.6875-2.4375-1.6875-4.125 0-2.0391 0.70312-3.5391 2.1094-4.5 1.4141-0.95703 3.6289-1.4375 6.6406-1.4375h3.2969v-0.4375c0-0.88281-0.35156-1.5312-1.0469-1.9375-0.69922-0.41406-1.7891-0.625-3.2656-0.625-1.1875 0-2.2969 0.12109-3.3281 0.35938-1.0312 0.24219-1.9922 0.60156-2.875 1.0781v-4.2656c1.1953-0.28906 2.3945-0.50781 3.5938-0.65625 1.207-0.15625 2.4141-0.23438 3.625-0.23438 3.1562 0 5.4297 0.625 6.8281 1.875 1.4062 1.2422 2.1094 3.2617 2.1094 6.0625z"/>
  </symbol>
  <symbol id="b" overflow="visible">
   <path d="m8.7812-22.453v4.9688h5.7656v4h-5.7656v7.4062c0 0.8125 0.16016 1.3672 0.48438 1.6562 0.32031 0.28125 0.96094 0.42188 1.9219 0.42188h2.875v4h-4.7969c-2.1992 0-3.7617-0.45703-4.6875-1.375-0.91797-0.92578-1.375-2.4922-1.375-4.7031v-7.4062h-2.7812v-4h2.7812v-4.9688z"/>
  </symbol>
  <symbol id="g" overflow="visible">
   <path d="m14.578-14.922v-9.3594h5.625v24.281h-5.625v-2.5312c-0.77344 1.0312-1.6211 1.7891-2.5469 2.2656-0.92969 0.47656-2 0.71875-3.2188 0.71875-2.1484 0-3.9141-0.85156-5.2969-2.5625-1.3867-1.7188-2.0781-3.9219-2.0781-6.6094 0-2.6953 0.69141-4.8984 2.0781-6.6094 1.3828-1.7188 3.1484-2.5781 5.2969-2.5781 1.207 0 2.2734 0.24609 3.2031 0.73438 0.9375 0.48047 1.7891 1.2305 2.5625 2.25zm-3.6875 11.312c1.1953 0 2.1094-0.4375 2.7344-1.3125 0.63281-0.875 0.95312-2.1406 0.95312-3.7969 0-1.6641-0.32031-2.9375-0.95312-3.8125-0.625-0.875-1.5391-1.3125-2.7344-1.3125-1.1875 0-2.0938 0.4375-2.7188 1.3125s-0.9375 2.1484-0.9375 3.8125c0 1.6562 0.3125 2.9219 0.9375 3.7969s1.5312 1.3125 2.7188 1.3125z"/>
  </symbol>
  <symbol id="k" overflow="visible">
   <path d="m11.984-3.6094c1.1953 0 2.1094-0.4375 2.7344-1.3125 0.63281-0.875 0.95312-2.1406 0.95312-3.7969 0-1.6641-0.32031-2.9375-0.95312-3.8125-0.625-0.875-1.5391-1.3125-2.7344-1.3125-1.1992 0-2.1211 0.44531-2.7656 1.3281-0.63672 0.875-0.95312 2.1406-0.95312 3.7969 0 1.6484 0.31641 2.9141 0.95312 3.7969 0.64453 0.875 1.5664 1.3125 2.7656 1.3125zm-3.7188-11.312c0.76953-1.0195 1.625-1.7695 2.5625-2.25 0.9375-0.48828 2.0156-0.73438 3.2344-0.73438 2.1562 0 3.9258 0.85938 5.3125 2.5781 1.3828 1.7109 2.0781 3.9141 2.0781 6.6094 0 2.6875-0.69531 4.8906-2.0781 6.6094-1.3867 1.7109-3.1562 2.5625-5.3125 2.5625-1.2188 0-2.2969-0.24219-3.2344-0.71875-0.9375-0.48828-1.793-1.2422-2.5625-2.2656v2.5312h-5.5781v-24.281h5.5781z"/>
  </symbol>
  <symbol id="j" overflow="visible">
   <path d="m0.39062-17.484h5.5938l4.6875 11.859 4-11.859h5.5938l-7.3594 19.141c-0.74219 1.9453-1.6055 3.3047-2.5938 4.0781-0.98047 0.78125-2.2734 1.1719-3.875 1.1719h-3.2344v-3.6719h1.75c0.94531 0 1.6328-0.15234 2.0625-0.45312 0.4375-0.30469 0.76953-0.84375 1-1.625l0.15625-0.48438z"/>
  </symbol>
  <symbol id="e" overflow="visible">
   <path d="m2.9375-23.312h9.9688c2.9688 0 5.2422 0.66406 6.8281 1.9844 1.5938 1.3125 2.3906 3.1875 2.3906 5.625 0 2.4492-0.79688 4.3359-2.3906 5.6562-1.5859 1.3125-3.8594 1.9688-6.8281 1.9688h-3.9688v8.0781h-6zm6 4.3594v6.5156h3.3281c1.1641 0 2.0664-0.28125 2.7031-0.84375 0.63281-0.57031 0.95312-1.3789 0.95312-2.4219 0-1.0391-0.32031-1.8438-0.95312-2.4062-0.63672-0.5625-1.5391-0.84375-2.7031-0.84375z"/>
  </symbol>
  <symbol id="d" overflow="visible">
   <path d="m11-13.906c-1.2422 0-2.1836 0.44922-2.8281 1.3438-0.64844 0.88672-0.96875 2.168-0.96875 3.8438 0 1.668 0.32031 2.9492 0.96875 3.8438 0.64453 0.88672 1.5859 1.3281 2.8281 1.3281 1.2188 0 2.1484-0.44141 2.7969-1.3281 0.64453-0.89453 0.96875-2.1758 0.96875-3.8438 0-1.6758-0.32422-2.957-0.96875-3.8438-0.64844-0.89453-1.5781-1.3438-2.7969-1.3438zm0-4c3.0078 0 5.3594 0.8125 7.0469 2.4375 1.6953 1.625 2.5469 3.875 2.5469 6.75 0 2.8672-0.85156 5.1094-2.5469 6.7344-1.6875 1.625-4.0391 2.4375-7.0469 2.4375-3.0117 0-5.3711-0.8125-7.0781-2.4375-1.6992-1.625-2.5469-3.8672-2.5469-6.7344 0-2.875 0.84766-5.125 2.5469-6.75 1.707-1.625 4.0664-2.4375 7.0781-2.4375z"/>
  </symbol>
  <symbol id="i" overflow="visible">
   <path d="m2.5-6.8125v-10.672h5.6094v1.75c0 0.94922-0.007813 2.1406-0.015625 3.5781-0.011719 1.4297-0.015625 2.3828-0.015625 2.8594 0 1.3984 0.035156 2.4062 0.10938 3.0312 0.070312 0.61719 0.19531 1.0625 0.375 1.3438 0.22656 0.36719 0.52344 0.64844 0.89062 0.84375 0.375 0.19922 0.80078 0.29688 1.2812 0.29688 1.1641 0 2.082-0.44531 2.75-1.3438 0.66406-0.89453 1-2.1328 1-3.7188v-8.6406h5.5938v17.484h-5.5938v-2.5312c-0.84375 1.0234-1.7422 1.7773-2.6875 2.2656-0.9375 0.47656-1.9766 0.71875-3.1094 0.71875-2.0117 0-3.5469-0.61719-4.6094-1.8594-1.0547-1.2383-1.5781-3.0391-1.5781-5.4062z"/>
  </symbol>
  <symbol id="f" overflow="visible">
   <path d="m16.812-16.938v4.5625c-0.76172-0.51953-1.5273-0.90625-2.2969-1.1562-0.76172-0.25-1.5547-0.375-2.375-0.375-1.5625 0-2.7773 0.46094-3.6406 1.375-0.86719 0.90625-1.2969 2.1797-1.2969 3.8125 0 1.625 0.42969 2.8984 1.2969 3.8125 0.86328 0.90625 2.0781 1.3594 3.6406 1.3594 0.875 0 1.7031-0.12891 2.4844-0.39062 0.78906-0.25781 1.5195-0.64453 2.1875-1.1562v4.5781c-0.875 0.32422-1.7656 0.5625-2.6719 0.71875-0.89844 0.16406-1.7969 0.25-2.7031 0.25-3.1484 0-5.6094-0.80469-7.3906-2.4219-1.7812-1.625-2.6719-3.875-2.6719-6.75 0-2.8828 0.89062-5.1328 2.6719-6.75 1.7812-1.625 4.2422-2.4375 7.3906-2.4375 0.91406 0 1.8164 0.085938 2.7031 0.25 0.89453 0.15625 1.7852 0.39844 2.6719 0.71875z"/>
  </symbol>
  <symbol id="h" overflow="visible">
   <path d="m20.266-10.641v10.641h-5.625v-8.1406c0-1.5078-0.039063-2.5508-0.10938-3.125-0.0625-0.57031-0.17969-0.99219-0.34375-1.2656-0.21875-0.36328-0.51562-0.64453-0.89062-0.84375-0.375-0.20703-0.80469-0.3125-1.2812-0.3125-1.168 0-2.0859 0.45312-2.75 1.3594-0.66797 0.89844-1 2.1406-1 3.7344v8.5938h-5.5781v-17.484h5.5781v2.5625c0.84375-1.0195 1.7383-1.7695 2.6875-2.25 0.94531-0.48828 1.9922-0.73438 3.1406-0.73438 2.0195 0 3.5508 0.62109 4.5938 1.8594 1.0508 1.2422 1.5781 3.043 1.5781 5.4062z"/>
  </symbol>
  <symbol id="s" overflow="visible">
   <path d="m2.6875-17.484h5.5781v17.484h-5.5781zm0-6.7969h5.5781v4.5469h-5.5781z"/>
  </symbol>
  <symbol id="r" overflow="visible">
   <path d="m2.6875-24.281h5.5781v24.281h-5.5781z"/>
  </symbol>
  <symbol id="q" overflow="visible">
   <path d="m14.188-24.281v3.6562h-3.0938c-0.79297 0-1.3438 0.14844-1.6562 0.4375-0.3125 0.28125-0.46875 0.77734-0.46875 1.4844v1.2188h4.7812v4h-4.7812v13.484h-5.5781v-13.484h-2.7812v-4h2.7812v-1.2188c0-1.9062 0.53125-3.3125 1.5938-4.2188s2.7031-1.3594 4.9219-1.3594z"/>
  </symbol>
  <symbol id="p" overflow="visible">
   <path d="m18.891-14.578c0.70703-1.082 1.5469-1.9062 2.5156-2.4688 0.97656-0.57031 2.0469-0.85938 3.2031-0.85938 2.0078 0 3.5391 0.62109 4.5938 1.8594 1.0508 1.2422 1.5781 3.043 1.5781 5.4062v10.641h-5.625v-9.1094c0.007812-0.13281 0.015625-0.27344 0.015625-0.42188 0.007813-0.14453 0.015625-0.35156 0.015625-0.625 0-1.2383-0.18359-2.1328-0.54688-2.6875-0.36719-0.5625-0.94922-0.84375-1.75-0.84375-1.0625 0-1.8867 0.4375-2.4688 1.3125-0.57422 0.875-0.87109 2.1406-0.89062 3.7969v8.5781h-5.625v-9.1094c0-1.9375-0.16797-3.1797-0.5-3.7344-0.33594-0.5625-0.92969-0.84375-1.7812-0.84375-1.0742 0-1.9023 0.44531-2.4844 1.3281-0.58594 0.875-0.875 2.1328-0.875 3.7656v8.5938h-5.6094v-17.484h5.6094v2.5625c0.6875-0.98828 1.4727-1.7344 2.3594-2.2344 0.89453-0.5 1.8789-0.75 2.9531-0.75 1.207 0 2.2734 0.29297 3.2031 0.875 0.92578 0.58594 1.6289 1.4023 2.1094 2.4531z"/>
  </symbol>
  <symbol id="o" overflow="visible">
   <path d="m20.266-10.641v10.641h-5.625v-8.1094c0-1.5312-0.039063-2.582-0.10938-3.1562-0.0625-0.57031-0.17969-0.99219-0.34375-1.2656-0.21875-0.36328-0.51562-0.64453-0.89062-0.84375-0.375-0.20703-0.80469-0.3125-1.2812-0.3125-1.168 0-2.0859 0.45312-2.75 1.3594-0.66797 0.89844-1 2.1406-1 3.7344v8.5938h-5.5781v-24.281h5.5781v9.3594c0.84375-1.0195 1.7383-1.7695 2.6875-2.25 0.94531-0.48828 1.9922-0.73438 3.1406-0.73438 2.0195 0 3.5508 0.62109 4.5938 1.8594 1.0508 1.2422 1.5781 3.043 1.5781 5.4062z"/>
  </symbol>
  <symbol id="n" overflow="visible">
   <path d="m2.9375-23.312h6.7031l8.4844 15.984v-15.984h5.7031v23.312h-6.7188l-8.4844-15.984v15.984h-5.6875z"/>
  </symbol>
  <symbol id="m" overflow="visible">
   <path d="m2.6875-17.484h5.5781v17.172c0 2.3438-0.5625 4.1289-1.6875 5.3594-1.1172 1.2383-2.7422 1.8594-4.875 1.8594h-2.7656v-3.6719h0.96875c1.0625 0 1.7891-0.24219 2.1875-0.71875 0.39453-0.48047 0.59375-1.4219 0.59375-2.8281zm0-6.7969h5.5781v4.5469h-5.5781z"/>
  </symbol>
 </defs>
 <g>
  <path d="m611.2 334.41c-4.0742 0.003907-8.1016 0.85547-11.832 2.4922l-31.969-56.906 31.973-56.906h-0.003906c3.7305 1.6367 7.7578 2.4883 11.832 2.4922 10.711 0 20.613-5.7148 25.969-14.996 5.3555-9.2773 5.3555-20.707 0-29.988-5.3555-9.2773-15.258-14.992-25.969-14.992-7.4102 0.046875-14.531 2.875-19.953 7.9297l-147.96-131.46c4.6562-6.7578 5.9492-15.277 3.5117-23.109-2.4414-7.832-8.3438-14.113-16.012-17.031-7.6641-2.918-16.25-2.1562-23.281 2.0703-7.0312 4.2266-11.73 11.449-12.75 19.59h-94.695c-0.95312-8.2227-5.6641-15.539-12.754-19.812s-15.762-5.0195-23.477-2.0195c-7.7188 2.9961-13.609 9.4023-15.953 17.34-2.3438 7.9414-0.87891 16.52 3.9727 23.227l-143.36 130.95c-7.3672-6.5391-17.484-9.0352-27.047-6.668-9.5625 2.3633-17.352 9.2852-20.824 18.504-3.4688 9.2188-2.1797 19.559 3.4492 27.645 5.6289 8.082 14.875 12.879 24.727 12.824 3.1602-0.054688 6.293-0.61719 9.2734-1.6641l11.957 21.484-6.3945 8.6953v0.003907c-4.5117-2.6719-9.6562-4.0859-14.898-4.0938-10.715 0-20.613 5.7148-25.969 14.992-5.3594 9.2812-5.3594 20.711 0 29.992 5.3555 9.2773 15.254 14.992 25.969 14.992 5.293-0.09375 10.465-1.6172 14.961-4.4102l7.7383 10.551-11.125 20.332c-3.6367-1.5547-7.5547-2.3594-11.512-2.3672-9.8984-0.10938-19.219 4.6719-24.898 12.785-5.6797 8.1094-6.9922 18.504-3.5 27.77 3.4883 9.2656 11.328 16.215 20.945 18.566 9.6211 2.3477 19.781-0.20312 27.148-6.8164l143.36 131.27c-4.8516 6.707-6.3164 15.285-3.9727 23.227 2.3438 7.9375 8.2344 14.344 15.953 17.34 7.7148 3 16.387 2.2539 23.477-2.0195s11.801-11.59 12.754-19.812h94.695c0.98828 8.168 5.6797 15.422 12.723 19.676 7.043 4.25 15.648 5.0234 23.336 2.0938 7.6836-2.9297 13.594-9.2383 16.02-17.098 2.4219-7.8633 1.0938-16.402-3.6094-23.152l148.02-131.46c5.4219 5.0547 12.543 7.8828 19.953 7.9297 10.711 0 20.613-5.7148 25.969-14.992 5.3555-9.2812 5.3555-20.711 0-29.988-5.3555-9.2812-15.258-14.996-25.969-14.996zm-22.188-118.93-35.68 39.578-13.621-24.234 45.652-20.27c1.0391 1.7656 2.2617 3.4141 3.6445 4.9258zm-7.6094 152.31-72.449 16.047 27.621-49.105 46.23 20.523h0.003906c-1.0039 2.9258-1.543 5.9883-1.6016 9.082-0.003907 1.1523 0.0625 2.3047 0.19531 3.4531zm-80.824 17.902-54.094 12.02c-1.1172-3.1914-2.832-6.1445-5.0508-8.6953l62.023-68.992 27.238 12.086zm-208.96 127.88-1.918-1.5977 33.953-58.188 19.184 16.176zm-174.56-158.57 16.879-7.6719 21.102 28.965-36.512-8.3125c0.074219-1.1719 0.074219-2.3477 0-3.5195 0.023438-3.2109-0.47266-6.4062-1.4688-9.4609zm22.828-10.422 20.141-9.207 26.727 48.086-22.188-5.0547zm-22.125-141.31c0-0.57422 0-1.0859 0.38281-1.6641v0.003906c0.39453-1.875 0.60937-3.7812 0.64062-5.6914 0.0625-1.1094 0.0625-2.2188 0-3.3242l36.512-8.3125-21.102 28.965-16.945-8.1875c0.19141-0.70312 0.32031-1.4062 0.51172-1.7891zm46.805-21.676 23.66-5.3711-26.855 49.043-21.488-9.8477zm158.38-108.32-14.258 7.2891-19.184-32.48 1.918-1.5977zm-38.684-21.934 18.734 31.973-8.25 4.2188-10.551-36.254zm21.934 37.66 12.789 21.484-13.938 11.895-8.3125-28.52zm15.793 27.109 19.887 34.082-28.969 0.003907-6.3945-21.035zm81.266-69.629 1.918 1.5977-33.953 58.188-19.184-16.176zm-35.293 65.414-20.523 35.168-20.523-35.168 20.52-17.328zm26.918 44.758c0.47266 4.1562 1.918 8.1445 4.2188 11.637l-20.91 17.902 8.6328-29.539zm-8.1211 246.75-8.6328-29.605 20.91 17.902v0.003906c-2.3359 3.5039-3.8008 7.5156-4.2852 11.699zm-79.988 27.434 6.3945-21.035 4.8555-0.003907-8.9531 23.082zm0 8.375-9.5273 24.426 7.6094-26.09zm1.4062-282.62 8.6328 29.605-20.91-17.902v-0.003906c2.3125-3.5117 3.7578-7.5195 4.2188-11.699zm95.145 16.496 1.918 1.5977-20.844 35.68-8.1836-14.066zm-103.2 230.19v-0.003906c-0.46094-4.1758-1.9062-8.1875-4.2188-11.699l20.91-17.902-8.6992 29.73zm-8.4414-230.19 27.047 23.211-8.1836 14.066-20.781-35.68zm66.945 57.547-11.125 38.363-11.125-38.363 11.125-9.5273zm-6.3945-13.746 13.621-11.703-5.4336 18.734zm-9.7148 126.41-13.621 11.641 5.4336-18.672zm-6.3945-13.746 1.0234-3.4531 2.4922 6.3945zm11.125 4.9219-7.1602-18.48 7.1602-24.617 7.1602 24.617zm-10.039-30.309-0.64063 2.1094v-0.64062zm-3.8359-6.3945-5.7539-14.836h14.387zm24.555 6.3945 0.89453 1.5352v0.64062zm-4.7969-20.91h14.387l-5.7539 14.836zm-18.672-59.465-5.4336-18.672 13.621 11.703zm-12.789-20.078 7.1602 24.617-5.3711 4.6055-9.2695-16.238zm9.1445 31.527 6.3945 20.91-10.168-17.391zm10.871 41.816h-16.688l-10.68-27.496 7.6719-6.3945zm-23.66-0.25391h-17.965c-0.46484-4.1797-1.9102-8.1914-4.2227-11.703l13.301-11.383zm-18.094 6.3945h20.59l8.5039 21.867-7.1602 12.211-26.152-22.379c2.3555-3.5 3.8477-7.5117 4.3477-11.703zm31.973 29.477 1.4062 3.6445-2.4961 8.4375-4.0273-3.4531zm-3.0703 19.184-6.9688 24.488-7.6094-12.789 9.3984-16.176zm10.805 22.25-7.543 19.82-5.1797-8.8867zm7.6094-1.8555 11.254 28.836-11.191 19.184-11.254-19.184zm7.6094 1.8555 12.789 11.062-4.8594 8.7578zm-2.6836-10.742 8.1836-7.0352 5.4336 18.672zm2.6836-10.742 2.4922-6.3945 1.0234 3.4531zm6.3945-16.242 1.4062-3.6445 5.1797 8.8242-4.0938 3.4531zm4.4102-11.254 8.5039-21.867h20.59c0.47266 4.1562 1.918 8.1445 4.2227 11.637l-26.152 22.445zm29.094-28.324h-18.031l8.9531-23.082 13.301 11.383v-0.003907c-2.3125 3.5117-3.7578 7.5234-4.2227 11.703zm-24.938 0h-16.816l19.887-34.082 7.6719 6.3945zm-12.086-20.91 6.3945-20.844 4.0273 3.4531zm8.0547-27.621 7.1602-24.617 7.6094 12.789-9.4648 16.176zm-18.348-15.797-20.523-17.582 20.523-35.168 20.523 35.168zm-23.66-24.938-9.0117-30.945h27.109zm-16.941 29.16-3.1328 5.3086-12.406-31.973zm3.707 6.3945 8.1836 14.066-7.0938 5.8164-5.1797-13.363zm-3.7734 24.363-15.09 12.789-1.918-1.5977 12.789-21.996zm-15.09 52.305 27.109 23.211-8.1836 14.066-20.844-35.68zm27.109 63.941-27.109 23.211-1.918-1.5977 20.844-35.68zm-18.73 46.098h6.3945l-4.7969 16.496-5.5625-4.7969v0.003906c2.2227-3.5352 3.5781-7.5469 3.9648-11.703zm14.707-6.3945 9.0156-30.949 5.3086 9.1445-8.4414 21.805zm18.477-14.707 8.6328 14.77-14.387 0.003906zm28.391 0 5.7539 14.77-14.387 0.003906zm4.0938-7.0352 5.3086-9.1445 9.0156 30.949h-5.8828zm37.535 5.3711-27.109-23.211 8.1836-14.066 20.844 35.68zm-30.246-30.688-7.1602-24.617 5.3711-4.6055 9.4609 16.176zm3.1328-33.441 27.109-23.211 1.918 1.5977-20.844 35.68zm27.109-62.598-14.898-12.918 4.1562-10.68 12.789 21.996zm-20.207-17.328-6.8398-5.8828 8.1836-14.066 3.8359 6.3945zm5.3086-26.281 15.539-26.664-12.469 31.973zm-17.262-29.094-18.098-31.012h27.109zm-64.836-37.406h-6.3945c-0.46484-4.1797-1.9102-8.1914-4.2227-11.703l5.5625-4.7969zm-52.496 21.102-60.234 68.609-24.363-11.062 84.34-57.547zm4.7305 4.2852v-0.003907c6.3242 4.4297 14.293 5.8125 21.738 3.7734l19.184 49.809-15.348 26.344 0.003906 0.003907c-5.9141-2.5664-12.559-2.8984-18.699-0.9375-6.1367 1.9648-11.355 6.0938-14.68 11.613l-51.152-23.402zm-10.297 96.359c-0.51172 1.582-0.875 3.207-1.0859 4.8594h-77.367l25.578-29.094zm-1.0859 11.254v-0.003907c0.21094 1.6523 0.57422 3.2773 1.0859 4.8594l-53.004 23.918-25.578-29.094zm3.6445 10.742v-0.003906c3.3281 5.5391 8.5547 9.6758 14.711 11.641 6.1523 1.9648 12.812 1.625 18.73-0.96094l22.637 38.75-22.637 38.938c-8.3906-3.6016-18.039-2.6602-25.574 2.4961l-59.02-67.523zm2.9414 94.758-84.531-57.547 24.363-11.125zm-3.7734 5.5c-0.5625 1.0742-1.0547 2.1836-1.4688 3.3242l-53.391-12.211-25.578-46.359zm-2.8789 9.5273h0.003907c-0.046876 0.91797-0.046876 1.832 0 2.75-0.03125 6.9609 2.668 13.66 7.5117 18.664 4.8438 5 11.453 7.9062 18.414 8.1016 6.9609 0.19141 13.719-2.3477 18.832-7.0703l7.8633 6.7148-21.738 73.977c-4.8672-0.91406-9.8984-0.35547-14.449 1.6016l-63.941-115.54zm64.586 39.898 6.8398 5.8828-27.43 46.996zm2.4297-6.3945 10.68-27.496h16.879l-19.887 34.082zm55.566-27.496 10.68 27.496-7.6719 6.3945-19.637-33.824zm13.172 33.824 20.59 52.879-27.43-46.996zm5.1172-4.4102 1.918-1.5977 7.6094 26.09zm-2.4297-6.3945-8.9531-23.082h5.4336l6.3945 21.035zm2.8711-22.953h6.3945c0.46484 4.1797 1.9102 8.1914 4.2227 11.703l-5.625 4.7969zm48.02-25.066h0.003907c-7.5742-5.1914-17.293-6.1094-25.707-2.4297l-22.316-39.004 22.57-38.75 0.003906 0.003907c5.957 2.6016 12.66 2.9336 18.844 0.92969 6.1875-2 11.426-6.1992 14.723-11.801l52.562 23.66zm10.102-96.871h0.003906c1.7344-5.0781 1.7344-10.586 0-15.664l55.055-24.488 29.41 32.289-29.094 32.289zm-2.5586-21.547h0.003907c-3.3008-5.6016-8.5391-9.8008-14.723-11.801-6.1836-2.0039-12.891-1.6719-18.848 0.92969l-15.09-26.598 19.184-49.809v-0.003906c7.5508 2.1211 15.66 0.66016 21.996-3.9648l60.617 67.586zm-49.168-116.12h-6.3945l4.7969-16.434 5.5625 4.7969c-2.2109 3.5156-3.5703 7.5-3.9648 11.637zm-12.789 0h-28.965l19.887-34.082 15.219 12.789zm-5.8203-39.707 34.527-59.145-20.586 71.102zm-28.707-24.617-12.789-11.254 64.582-32.867zm-4.9219 4.2188-19.184 16.176-11.699-20.203 16.305-8.3125zm-68.93-36.512c1.4609-0.027343 2.9141-0.17969 4.3477-0.44531l10.934 37.469-64.582 32.867 39.391-71.871c3.1445 1.2852 6.5117 1.957 9.9102 1.9805zm-54.734 79.863 71.805-36.574 8.7617 30.117-7.8633 6.7148c-5.1133-4.7266-11.875-7.2656-18.836-7.0703-6.9609 0.19141-13.566 3.0977-18.414 8.1016-4.8438 5-7.5391 11.699-7.5117 18.66-0.046875 0.91797-0.046875 1.8359 0 2.75l-46.484 10.613zm29.605 28.965c0.41406 1.1406 0.90625 2.2539 1.4688 3.3281l-78.008 53.457 24.555-44.758zm-84.34 71.105 25.066 11.445-26.473 30.246-13.172-15.027zm-19.184 21.484-5.3086-6.0117 13.746-9.3984zm10.68 21.805h-15.219l5.8828-10.68zm0 6.3945-10.613 12.086-6.6523-12.09zm7.0352 1.6641 26.473 30.18-26.09 11.895-0.64062-0.44922-14.066-25.578zm-12.023 33.5-10.805-7.418 4.0938-4.668zm5.625 11.637-20.207 9.207-9.5898-12.789 9.0781-10.359zm34.656 60.938 54.734 98.469-75.32-103.14zm136 57.102 20.523-35.168 20.523 35.168-20.52 17.391zm44.312 5.625 33.953 58.188-1.918 1.5977-51.152-43.609zm50.066 52.688c-1.457 0.03125-2.9102 0.17969-4.3477 0.44922l-21.547-73.789 7.8633-6.7148c5.1172 4.7266 11.875 7.2656 18.836 7.0703 6.9609-0.19141 13.57-3.0977 18.414-8.1016 4.8438-5 7.5391-11.699 7.5117-18.66 0.042968-0.875 0.042968-1.75 0-2.6211l48.531-10.805-64.836 115.09v-0.003907c-3.3164-1.3086-6.8594-1.9375-10.426-1.8516zm86.707-191.31 27.43-30.242 13.621 15.152-14.961 26.664zm31.523-35.039 12.789-14.004 7.7344 14.004-7.8633 14.004zm-4.0938-4.7969-27.238-30.246 25.578-11.508 14.961 26.664zm46.551-74.043c0 0.57422 0 1.0859 0.38281 1.6641 0.38281 0.57422 0 1.3438 0.44922 1.9805l-46.039 20.461-27.621-49.105 72.445 16.113c-0.066406 1.1289-0.066406 2.2578 0 3.3867-0.10547 1.8359-0.042968 3.6758 0.19141 5.5zm-51.152 26.664-27.367 12.148-62.09-68.992c2.2227-2.5508 3.9375-5.5039 5.0547-8.6953l54.094 12.02zm-83.125-71.871c0.042969-0.87109 0.042969-1.7461 0-2.6211 0.027344-6.9648-2.668-13.66-7.5117-18.664-4.8438-5-11.453-7.9062-18.414-8.1016-6.9609-0.19141-13.719 2.3477-18.832 7.0703l-7.5469-6.6484 21.547-73.852c4.9102 0.93359 9.9883 0.37891 14.582-1.6016l64.836 115.09zm-51.473-120.02-67.137 34.207-33.25-28.453-0.003906 0.003906c2.3125-3.5117 3.7578-7.5234 4.2227-11.703h94.695c0.26172 2.0312 0.75391 4.0273 1.4727 5.9453zm-182.11 92.844-17.586 8.8906 50.578-69.312zm-5.4375 9.9102-16.434 29.988-21.996 5.0508 17.969-24.617zm-47.891 37.215-43.672 9.9766v-0.51172l58.699-29.859zm-46.359 34.91 15.664 7.1602-7.9883 10.875-11.445-12.789c1.4453-1.6055 2.707-3.3633 3.7695-5.2422zm21.613 9.8477 20.27 9.2734-20.719 14.195-9.3984-10.359zm-5.8164 27.367-8.375 5.7539-4.2188-7.6094 4.9883-6.8398zm4.2188 4.8594 7.2891 7.9297-7.8008 14.324-9.0156-15.984zm-6.9688 23.918h-8.9531c-0.39453-3.8359-1.5469-7.5508-3.3867-10.938l4.6641-3.1328zm-8.8867 6.3945h11.062l-8.3125 15.152-6.3945-4.2188h-0.003906c1.9102-3.3711 3.125-7.0898 3.582-10.938zm15.41 5.3086 6.3945 11.895-6.3945 6.9688-7.8633-5.3711zm-3.7734 23.465-7.6094 8.9492-3.6445-4.9883 4.5391-8.3125zm0 29.797-15.664 7.1602h-0.003906c-1.0547-1.7891-2.3008-3.4609-3.707-4.9883l11.445-12.789zm-12.789 31.973 43.734 9.9766 91.438 125.26-139.71-126.68c1.8281-2.4883 3.25-5.25 4.2188-8.1836zm179.04 144.19 51.602-44.184 51.602 44.246c-2.6094 3.5352-4.3008 7.668-4.9258 12.02h-94.695c-0.46484-4.1797-1.9102-8.1914-4.2227-11.703zm141.25-6.3945 67.012-120.21 78.137-17.328c0.83984 2.7734 2.0898 5.4023 3.707 7.8047l-147.57 131.4zm148.34-162.22-45.652-20.27 12.918-24.109 35.617 39.578h-0.003906c-1.3633 1.5117-2.5625 3.1641-3.582 4.9258zm8.375-9.4648-37.785-40.668 7.0352-12.789zm-37.785-79.035 36.957-41.113-29.926 53.902zm78.137-65.219c0 6.2578-2.4883 12.258-6.9102 16.684-4.4258 4.4258-10.43 6.9102-16.684 6.9102-4.1523 0.027344-8.2383-1.0547-11.832-3.1328-1.5039-0.80078-2.8984-1.7891-4.1562-2.9414-2.4883-2.1914-4.4727-4.8984-5.8164-7.9297-1.3477-3.0195-2.043-6.2852-2.0469-9.5898-0.019531-1.7461 0.19531-3.4883 0.64063-5.1797 0.85156-3.9141 2.7266-7.5352 5.4336-10.488 4.4219-5.043 10.809-7.9336 17.52-7.9258 6.3008-0.070312 12.371 2.3867 16.848 6.8203 4.4805 4.4297 7.0039 10.473 7.0039 16.773zm-48.215-17.199c-1.0078 1.4297-1.8828 2.9492-2.6211 4.5391l-0.44922 1.0859c0 0.64062-0.57422 1.3438-0.76562 2.0469l-78.008-17.391-67.648-120.34 1.918-1.5352 147.57 131.4zm-334.54-127.88-68.285 93.543-69.633 35.617-0.70312-1.4062v-0.38281zm-186.84 145.08c-0.019531-6.3867 2.5547-12.508 7.1367-16.957 4.582-4.4531 10.777-6.8477 17.16-6.6406s12.406 3 16.691 7.7383c1.5352 1.6758 2.8086 3.5703 3.7734 5.6289 0.39844 0.73828 0.73828 1.5078 1.0234 2.3008 0.30859 0.85547 0.56641 1.7344 0.76562 2.6211 0.41016 1.7188 0.625 3.4766 0.64062 5.2461 0.015625 6.8242-2.9531 13.316-8.1211 17.773-1.7656 1.5703-3.7734 2.8477-5.9492 3.7734-2.9961 1.3438-6.2422 2.043-9.5273 2.0469-6.2461 0-12.234-2.4766-16.66-6.8906-4.4219-4.4102-6.9141-10.395-6.9336-16.641zm38.75 25.578 1.9805-1.2773 12.34 14.066-4.0938 5.5625zm12.789 35.742-5.2422 3.8984c-0.8125-0.95312-1.6914-1.8516-2.625-2.6836l4.6055-6.3945zm-51.539 23.082c0-6.2578 2.4883-12.258 6.9102-16.684 4.4258-4.4258 10.43-6.9102 16.684-6.9102 5.0039-0.003906 9.8711 1.6094 13.879 4.6016 2.1953 1.5547 4.082 3.5078 5.5625 5.7578 2.7148 3.9023 4.1719 8.543 4.1719 13.297 0 4.7578-1.457 9.3984-4.1719 13.301-1.4844 2.2266-3.3711 4.1602-5.5625 5.6914-3.9961 2.9609-8.8398 4.5547-13.812 4.5391-6.2695 0.019531-12.285-2.4609-16.727-6.8867-4.4375-4.4258-6.9336-10.438-6.9336-16.707zm43.672 22.125c0.94531-0.91797 1.8203-1.9023 2.625-2.9414l6.7148 4.6055-3.3906 6.3945zm9.3984 23.723-12.277 14.004 9.6562-17.648zm-53.07 38.363c0-6.2578 2.4883-12.258 6.9102-16.684 4.4258-4.4258 10.43-6.9102 16.684-6.9102 3.9844-0.007813 7.9023 1.0039 11.383 2.9414 1.4844 0.77734 2.8594 1.7422 4.0938 2.875 5.1523 4.4453 8.1172 10.91 8.1211 17.715-0.10547 5.8906-2.3828 11.539-6.3945 15.855-4.2812 4.625-10.238 7.3398-16.535 7.5352-6.3008 0.19531-12.414-2.1406-16.973-6.4922-4.5586-4.3477-7.1836-10.344-7.2891-16.645zm546 23.594h0.003906c-6.7344 0.023437-13.148-2.8672-17.586-7.9297-2.6797-2.9219-4.5508-6.4922-5.4336-10.355-0.41016-1.6328-0.60547-3.3086-0.57812-4.9883 0.003906-3.3047 0.69922-6.5742 2.0469-9.5898 1.3516-3.0312 3.3359-5.7344 5.8203-7.9297 1.1719-1.1758 2.4805-2.207 3.8984-3.0703 3.5039-2.0078 7.4727-3.0664 11.512-3.0703 8.4297 0 16.219 4.5 20.434 11.797 4.2148 7.3008 4.2148 16.297 0 23.598-4.2148 7.2969-12.004 11.797-20.434 11.797z"/>
  <use x="58.808594" y="655.914062" xlink:href="#t"/>
  <use x="82.273438" y="655.914062" xlink:href="#c"/>
  <use x="98.039062" y="655.914062" xlink:href="#a"/>
  <use x="119.722656" y="655.914062" xlink:href="#l"/>
  <use x="141.296875" y="655.914062" xlink:href="#b"/>
  <use x="156.582031" y="655.914062" xlink:href="#a"/>
  <use x="178.261719" y="655.914062" xlink:href="#g"/>
  <use x="212.277344" y="655.914062" xlink:href="#k"/>
  <use x="235.164062" y="655.914062" xlink:href="#j"/>
  <use x="267.136719" y="655.914062" xlink:href="#e"/>
  <use x="290.566406" y="655.914062" xlink:href="#c"/>
  <use x="306.332031" y="655.914062" xlink:href="#d"/>
  <use x="328.296875" y="655.914062" xlink:href="#g"/>
  <use x="351.183594" y="655.914062" xlink:href="#i"/>
  <use x="373.945312" y="655.914062" xlink:href="#f"/>
  <use x="392.894531" y="655.914062" xlink:href="#b"/>
  <use x="419.308594" y="655.914062" xlink:href="#e"/>
  <use x="442.742188" y="655.914062" xlink:href="#a"/>
  <use x="464.421875" y="655.914062" xlink:href="#h"/>
  <use x="487.183594" y="655.914062" xlink:href="#f"/>
  <use x="506.136719" y="655.914062" xlink:href="#s"/>
  <use x="517.09375" y="655.914062" xlink:href="#r"/>
  <use x="58.808594" y="687.882812" xlink:href="#q"/>
  <use x="72.71875" y="687.882812" xlink:href="#c"/>
  <use x="88.484375" y="687.882812" xlink:href="#d"/>
  <use x="110.449219" y="687.882812" xlink:href="#p"/>
  <use x="154.894531" y="687.882812" xlink:href="#b"/>
  <use x="170.175781" y="687.882812" xlink:href="#o"/>
  <use x="192.9375" y="687.882812" xlink:href="#a"/>
  <use x="225.75" y="687.882812" xlink:href="#n"/>
  <use x="252.507812" y="687.882812" xlink:href="#d"/>
  <use x="274.472656" y="687.882812" xlink:href="#i"/>
  <use x="297.234375" y="687.882812" xlink:href="#h"/>
  <use x="331.125" y="687.882812" xlink:href="#e"/>
  <use x="354.554688" y="687.882812" xlink:href="#c"/>
  <use x="370.324219" y="687.882812" xlink:href="#d"/>
  <use x="392.285156" y="687.882812" xlink:href="#m"/>
  <use x="403.246094" y="687.882812" xlink:href="#a"/>
  <use x="424.929688" y="687.882812" xlink:href="#f"/>
  <use x="443.878906" y="687.882812" xlink:href="#b"/>
 </g>
</svg>
