<?xml version="1.0" encoding="UTF-8"?>
<svg width="700pt" height="700pt" version="1.1" viewBox="0 0 700 700" xmlns="http://www.w3.org/2000/svg" xmlns:xlink="http://www.w3.org/1999/xlink">
 <defs>
  <symbol id="x" overflow="visible">
   <path d="m18.766-1.125c-0.96875 0.5-1.9805 0.875-3.0312 1.125-1.043 0.25781-2.1367 0.39062-3.2812 0.39062-3.3984 0-6.0898-0.94531-8.0781-2.8438-1.9922-1.9062-2.9844-4.4844-2.9844-7.7344 0-3.2578 0.99219-5.8359 2.9844-7.7344 1.9883-1.9062 4.6797-2.8594 8.0781-2.8594 1.1445 0 2.2383 0.13281 3.2812 0.39062 1.0508 0.25 2.0625 0.625 3.0312 1.125v4.2188c-0.98047-0.65625-1.9453-1.1406-2.8906-1.4531-0.94922-0.3125-1.9492-0.46875-3-0.46875-1.875 0-3.3516 0.60547-4.4219 1.8125-1.0742 1.1992-1.6094 2.8555-1.6094 4.9688 0 2.1055 0.53516 3.7617 1.6094 4.9688 1.0703 1.1992 2.5469 1.7969 4.4219 1.7969 1.0508 0 2.0508-0.14844 3-0.45312 0.94531-0.3125 1.9102-0.80078 2.8906-1.4688z"/>
  </symbol>
  <symbol id="c" overflow="visible">
   <path d="m13.734-11.141c-0.4375-0.19531-0.87109-0.34375-1.2969-0.4375-0.41797-0.10156-0.83984-0.15625-1.2656-0.15625-1.2617 0-2.2305 0.40625-2.9062 1.2188-0.67969 0.80469-1.0156 1.9531-1.0156 3.4531v7.0625h-4.8906v-15.312h4.8906v2.5156c0.625-1 1.3438-1.7266 2.1562-2.1875 0.82031-0.46875 1.8008-0.70312 2.9375-0.70312 0.16406 0 0.34375 0.011719 0.53125 0.03125 0.19531 0.011719 0.47656 0.039062 0.84375 0.078125z"/>
  </symbol>
  <symbol id="a" overflow="visible">
   <path d="m17.641-7.7031v1.4062h-11.453c0.125 1.1484 0.53906 2.0078 1.25 2.5781 0.70703 0.57422 1.7031 0.85938 2.9844 0.85938 1.0312 0 2.082-0.14844 3.1562-0.45312 1.082-0.3125 2.1914-0.77344 3.3281-1.3906v3.7656c-1.1562 0.4375-2.3125 0.76562-3.4688 0.98438-1.1562 0.22656-2.3125 0.34375-3.4688 0.34375-2.7734 0-4.9297-0.70312-6.4688-2.1094-1.5312-1.4062-2.2969-3.3789-2.2969-5.9219 0-2.5 0.75391-4.4609 2.2656-5.8906 1.5078-1.4375 3.582-2.1562 6.2188-2.1562 2.4062 0 4.332 0.73047 5.7812 2.1875 1.4453 1.4492 2.1719 3.3828 2.1719 5.7969zm-5.0312-1.625c0-0.92578-0.27344-1.6719-0.8125-2.2344-0.54297-0.57031-1.25-0.85938-2.125-0.85938-0.94922 0-1.7188 0.26562-2.3125 0.79688s-0.96484 1.2969-1.1094 2.2969z"/>
  </symbol>
  <symbol id="e" overflow="visible">
   <path d="m9.2188-6.8906c-1.0234 0-1.793 0.17188-2.3125 0.51562-0.51172 0.34375-0.76562 0.85547-0.76562 1.5312 0 0.625 0.20703 1.1172 0.625 1.4688 0.41406 0.34375 0.98828 0.51562 1.7188 0.51562 0.92578 0 1.7031-0.32812 2.3281-0.98438 0.63281-0.66406 0.95312-1.4922 0.95312-2.4844v-0.5625zm7.4688-1.8438v8.7344h-4.9219v-2.2656c-0.65625 0.92969-1.3984 1.6055-2.2188 2.0312-0.82422 0.41406-1.8242 0.625-3 0.625-1.5859 0-2.8711-0.45703-3.8594-1.375-0.99219-0.92578-1.4844-2.1289-1.4844-3.6094 0-1.7891 0.61328-3.1016 1.8438-3.9375 1.2383-0.84375 3.1797-1.2656 5.8281-1.2656h2.8906v-0.39062c0-0.76953-0.30859-1.332-0.92188-1.6875-0.61719-0.36328-1.5703-0.54688-2.8594-0.54688-1.0547 0-2.0312 0.10547-2.9375 0.3125-0.89844 0.21094-1.7305 0.52344-2.5 0.9375v-3.7344c1.0391-0.25 2.0859-0.44141 3.1406-0.57812 1.0625-0.13281 2.125-0.20312 3.1875-0.20312 2.7578 0 4.75 0.54688 5.9688 1.6406 1.2266 1.0859 1.8438 2.8555 1.8438 5.3125z"/>
  </symbol>
  <symbol id="b" overflow="visible">
   <path d="m7.7031-19.656v4.3438h5.0469v3.5h-5.0469v6.5c0 0.71094 0.14062 1.1875 0.42188 1.4375s0.83594 0.375 1.6719 0.375h2.5156v3.5h-4.1875c-1.9375 0-3.3125-0.39844-4.125-1.2031-0.80469-0.8125-1.2031-2.1797-1.2031-4.1094v-6.5h-2.4219v-3.5h2.4219v-4.3438z"/>
  </symbol>
  <symbol id="i" overflow="visible">
   <path d="m12.766-13.078v-8.2031h4.9219v21.281h-4.9219v-2.2188c-0.66797 0.90625-1.4062 1.5703-2.2188 1.9844s-1.7578 0.625-2.8281 0.625c-1.8867 0-3.4336-0.75-4.6406-2.25-1.2109-1.5-1.8125-3.4258-1.8125-5.7812 0-2.3633 0.60156-4.2969 1.8125-5.7969 1.207-1.5 2.7539-2.25 4.6406-2.25 1.0625 0 2 0.21484 2.8125 0.64062 0.82031 0.42969 1.5664 1.0859 2.2344 1.9688zm-3.2188 9.9219c1.0391 0 1.8359-0.37891 2.3906-1.1406 0.55078-0.76953 0.82812-1.8828 0.82812-3.3438 0-1.457-0.27734-2.5664-0.82812-3.3281-0.55469-0.76953-1.3516-1.1562-2.3906-1.1562-1.043 0-1.8398 0.38672-2.3906 1.1562-0.55469 0.76172-0.82812 1.8711-0.82812 3.3281 0 1.4609 0.27344 2.5742 0.82812 3.3438 0.55078 0.76172 1.3477 1.1406 2.3906 1.1406z"/>
  </symbol>
  <symbol id="h" overflow="visible">
   <path d="m10.5-3.1562c1.0508 0 1.8516-0.37891 2.4062-1.1406 0.55078-0.76953 0.82812-1.8828 0.82812-3.3438 0-1.457-0.27734-2.5664-0.82812-3.3281-0.55469-0.76953-1.3555-1.1562-2.4062-1.1562-1.0547 0-1.8594 0.38672-2.4219 1.1562-0.55469 0.77344-0.82812 1.8828-0.82812 3.3281 0 1.4492 0.27344 2.5586 0.82812 3.3281 0.5625 0.77344 1.3672 1.1562 2.4219 1.1562zm-3.25-9.9219c0.67578-0.88281 1.4219-1.5391 2.2344-1.9688 0.82031-0.42578 1.7656-0.64062 2.8281-0.64062 1.8945 0 3.4453 0.75 4.6562 2.25 1.207 1.5 1.8125 3.4336 1.8125 5.7969 0 2.3555-0.60547 4.2812-1.8125 5.7812-1.2109 1.5-2.7617 2.25-4.6562 2.25-1.0625 0-2.0078-0.21094-2.8281-0.625-0.8125-0.42578-1.5586-1.0859-2.2344-1.9844v2.2188h-4.8906v-21.281h4.8906z"/>
  </symbol>
  <symbol id="g" overflow="visible">
   <path d="m0.34375-15.312h4.8906l4.125 10.391 3.5-10.391h4.8906l-6.4375 16.766c-0.64844 1.6953-1.4023 2.8828-2.2656 3.5625-0.86719 0.6875-2 1.0312-3.4062 1.0312h-2.8438v-3.2188h1.5312c0.83203 0 1.4375-0.13672 1.8125-0.40625 0.38281-0.26172 0.67969-0.73047 0.89062-1.4062l0.14062-0.42188z"/>
  </symbol>
  <symbol id="f" overflow="visible">
   <path d="m0.14062-20.406h5.2812l5.4219 15.062 5.4062-15.062h5.2812l-7.5625 20.406h-6.2656z"/>
  </symbol>
  <symbol id="w" overflow="visible">
   <path d="m2.3594-21.281h4.8906v21.281h-4.8906z"/>
  </symbol>
  <symbol id="v" overflow="visible">
   <path d="m10.75-12.516c0.82031 0 1.4453-0.17969 1.875-0.54688 0.4375-0.36328 0.65625-0.89844 0.65625-1.6094 0-0.69531-0.21875-1.2266-0.65625-1.5938-0.42969-0.375-1.0547-0.5625-1.875-0.5625h-2.9219v4.3125zm0.17188 8.9375c1.0625 0 1.8594-0.22266 2.3906-0.67188 0.53125-0.44531 0.79688-1.125 0.79688-2.0312 0-0.88281-0.26562-1.5469-0.79688-1.9844-0.52344-0.4375-1.3203-0.65625-2.3906-0.65625h-3.0938v5.3438zm4.8906-7.3438c1.1328 0.32422 2.0078 0.92969 2.625 1.8125 0.625 0.88672 0.9375 1.9688 0.9375 3.25 0 1.9688-0.66797 3.4375-2 4.4062-1.3359 0.96875-3.3555 1.4531-6.0625 1.4531h-8.7344v-20.406h7.8906c2.832 0 4.8828 0.42969 6.1562 1.2812 1.2812 0.85547 1.9219 2.2266 1.9219 4.1094 0 1-0.23438 1.8516-0.70312 2.5469-0.46875 0.6875-1.1484 1.2031-2.0312 1.5469z"/>
  </symbol>
  <symbol id="u" overflow="visible">
   <path d="m2.3594-15.312h4.8906v15.312h-4.8906zm0-5.9688h4.8906v4h-4.8906z"/>
  </symbol>
  <symbol id="t" overflow="visible">
   <path d="m14.312-14.828v3.7188c-1.043-0.4375-2.0547-0.76562-3.0312-0.98438-0.98047-0.21875-1.9023-0.32812-2.7656-0.32812-0.92969 0-1.6211 0.11719-2.0781 0.34375-0.44922 0.23047-0.67188 0.58984-0.67188 1.0781 0 0.38672 0.17188 0.68359 0.51562 0.89062 0.34375 0.21094 0.95703 0.36719 1.8438 0.46875l0.85938 0.125c2.5078 0.32422 4.1953 0.85156 5.0625 1.5781 0.86328 0.73047 1.2969 1.8711 1.2969 3.4219 0 1.6367-0.60547 2.8672-1.8125 3.6875-1.1992 0.8125-2.9922 1.2188-5.375 1.2188-1.0234 0-2.0742-0.078125-3.1562-0.23438-1.0742-0.15625-2.1797-0.39453-3.3125-0.71875v-3.7188c0.96875 0.48047 1.9609 0.83984 2.9844 1.0781 1.0312 0.23047 2.0781 0.34375 3.1406 0.34375 0.95703 0 1.6758-0.12891 2.1562-0.39062 0.47656-0.26953 0.71875-0.66406 0.71875-1.1875 0-0.4375-0.16797-0.75781-0.5-0.96875-0.33594-0.21875-0.99609-0.38281-1.9844-0.5l-0.85938-0.10938c-2.1797-0.26953-3.7031-0.77344-4.5781-1.5156-0.875-0.73828-1.3125-1.8594-1.3125-3.3594 0-1.625 0.55078-2.8281 1.6562-3.6094 1.1133-0.78906 2.8203-1.1875 5.125-1.1875 0.89453 0 1.8359 0.074219 2.8281 0.21875 1 0.13672 2.082 0.35156 3.25 0.64062z"/>
  </symbol>
  <symbol id="s" overflow="visible">
   <path d="m7.25-2.2188v8.0469h-4.8906v-21.141h4.8906v2.2344c0.67578-0.88281 1.4219-1.5391 2.2344-1.9688 0.82031-0.42578 1.7656-0.64062 2.8281-0.64062 1.8945 0 3.4453 0.75 4.6562 2.25 1.207 1.5 1.8125 3.4336 1.8125 5.7969 0 2.3555-0.60547 4.2812-1.8125 5.7812-1.2109 1.5-2.7617 2.25-4.6562 2.25-1.0625 0-2.0078-0.21094-2.8281-0.625-0.8125-0.42578-1.5586-1.0859-2.2344-1.9844zm3.25-9.9062c-1.0547 0-1.8594 0.38672-2.4219 1.1562-0.55469 0.77344-0.82812 1.8828-0.82812 3.3281 0 1.4492 0.27344 2.5586 0.82812 3.3281 0.5625 0.77344 1.3672 1.1562 2.4219 1.1562 1.0508 0 1.8516-0.37891 2.4062-1.1406 0.55078-0.76953 0.82812-1.8828 0.82812-3.3438 0-1.457-0.27734-2.5664-0.82812-3.3281-0.55469-0.76953-1.3555-1.1562-2.4062-1.1562z"/>
  </symbol>
  <symbol id="d" overflow="visible">
   <path d="m9.6406-12.188c-1.0859 0-1.9141 0.39062-2.4844 1.1719-0.57422 0.78125-0.85938 1.9062-0.85938 3.375s0.28516 2.5938 0.85938 3.375c0.57031 0.77344 1.3984 1.1562 2.4844 1.1562 1.0625 0 1.875-0.38281 2.4375-1.1562 0.57031-0.78125 0.85938-1.9062 0.85938-3.375s-0.28906-2.5938-0.85938-3.375c-0.5625-0.78125-1.375-1.1719-2.4375-1.1719zm0-3.5c2.6328 0 4.6914 0.71484 6.1719 2.1406 1.4766 1.418 2.2188 3.3867 2.2188 5.9062 0 2.5117-0.74219 4.4805-2.2188 5.9062-1.4805 1.418-3.5391 2.125-6.1719 2.125-2.6484 0-4.7148-0.70703-6.2031-2.125-1.4922-1.4258-2.2344-3.3945-2.2344-5.9062 0-2.5195 0.74219-4.4883 2.2344-5.9062 1.4883-1.4258 3.5547-2.1406 6.2031-2.1406z"/>
  </symbol>
  <symbol id="r" overflow="visible">
   <path d="m12.422-21.281v3.2188h-2.7031c-0.6875 0-1.1719 0.125-1.4531 0.375-0.27344 0.25-0.40625 0.6875-0.40625 1.3125v1.0625h4.1875v3.5h-4.1875v11.812h-4.8906v-11.812h-2.4375v-3.5h2.4375v-1.0625c0-1.6641 0.46094-2.8984 1.3906-3.7031 0.92578-0.80078 2.3672-1.2031 4.3281-1.2031z"/>
  </symbol>
  <symbol id="q" overflow="visible">
   <path d="m16.547-12.766c0.61328-0.94531 1.3477-1.6719 2.2031-2.1719 0.85156-0.5 1.7891-0.75 2.8125-0.75 1.7578 0 3.0977 0.54688 4.0156 1.6406 0.92578 1.0859 1.3906 2.6562 1.3906 4.7188v9.3281h-4.9219v-7.9844-0.35938c0.007813-0.13281 0.015625-0.32031 0.015625-0.5625 0-1.082-0.16406-1.8633-0.48438-2.3438-0.3125-0.48828-0.82422-0.73438-1.5312-0.73438-0.92969 0-1.6484 0.38672-2.1562 1.1562-0.51172 0.76172-0.77344 1.8672-0.78125 3.3125v7.5156h-4.9219v-7.9844c0-1.6953-0.14844-2.7852-0.4375-3.2656-0.29297-0.48828-0.8125-0.73438-1.5625-0.73438-0.9375 0-1.6641 0.38672-2.1719 1.1562-0.51172 0.76172-0.76562 1.8594-0.76562 3.2969v7.5312h-4.9219v-15.312h4.9219v2.2344c0.60156-0.86328 1.2891-1.5156 2.0625-1.9531 0.78125-0.4375 1.6406-0.65625 2.5781-0.65625 1.0625 0 2 0.25781 2.8125 0.76562 0.8125 0.51172 1.4258 1.2305 1.8438 2.1562z"/>
  </symbol>
  <symbol id="p" overflow="visible">
   <path d="m17.75-9.3281v9.3281h-4.9219v-7.1094c0-1.3438-0.03125-2.2656-0.09375-2.7656s-0.16797-0.86719-0.3125-1.1094c-0.1875-0.3125-0.44922-0.55469-0.78125-0.73438-0.32422-0.17578-0.69531-0.26562-1.1094-0.26562-1.0234 0-1.8242 0.39844-2.4062 1.1875-0.58594 0.78125-0.875 1.8711-0.875 3.2656v7.5312h-4.8906v-21.281h4.8906v8.2031c0.73828-0.88281 1.5195-1.5391 2.3438-1.9688 0.83203-0.42578 1.75-0.64062 2.75-0.64062 1.7695 0 3.1133 0.54688 4.0312 1.6406 0.91406 1.0859 1.375 2.6562 1.375 4.7188z"/>
  </symbol>
  <symbol id="o" overflow="visible">
   <path d="m2.5781-20.406h5.875l7.4219 14v-14h4.9844v20.406h-5.875l-7.4219-14v14h-4.9844z"/>
  </symbol>
  <symbol id="n" overflow="visible">
   <path d="m2.1875-5.9688v-9.3438h4.9219v1.5312c0 0.83594-0.007813 1.875-0.015625 3.125-0.011719 1.25-0.015625 2.0859-0.015625 2.5 0 1.2422 0.03125 2.1328 0.09375 2.6719 0.070313 0.54297 0.17969 0.93359 0.32812 1.1719 0.20703 0.32422 0.47266 0.57422 0.79688 0.75 0.32031 0.16797 0.69141 0.25 1.1094 0.25 1.0195 0 1.8203-0.39062 2.4062-1.1719 0.58203-0.78125 0.875-1.8672 0.875-3.2656v-7.5625h4.8906v15.312h-4.8906v-2.2188c-0.74219 0.89844-1.5234 1.5586-2.3438 1.9844-0.82422 0.41406-1.7344 0.625-2.7344 0.625-1.7617 0-3.1055-0.53906-4.0312-1.625-0.92969-1.082-1.3906-2.6602-1.3906-4.7344z"/>
  </symbol>
  <symbol id="m" overflow="visible">
   <path d="m17.75-9.3281v9.3281h-4.9219v-7.1406c0-1.3203-0.03125-2.2344-0.09375-2.7344s-0.16797-0.86719-0.3125-1.1094c-0.1875-0.3125-0.44922-0.55469-0.78125-0.73438-0.32422-0.17578-0.69531-0.26562-1.1094-0.26562-1.0234 0-1.8242 0.39844-2.4062 1.1875-0.58594 0.78125-0.875 1.8711-0.875 3.2656v7.5312h-4.8906v-15.312h4.8906v2.2344c0.73828-0.88281 1.5195-1.5391 2.3438-1.9688 0.83203-0.42578 1.75-0.64062 2.75-0.64062 1.7695 0 3.1133 0.54688 4.0312 1.6406 0.91406 1.0859 1.375 2.6562 1.375 4.7188z"/>
  </symbol>
  <symbol id="l" overflow="visible">
   <path d="m2.5781-20.406h8.7344c2.5938 0 4.582 0.57812 5.9688 1.7344 1.3945 1.1484 2.0938 2.7891 2.0938 4.9219 0 2.1367-0.69922 3.7812-2.0938 4.9375-1.3867 1.1562-3.375 1.7344-5.9688 1.7344h-3.4844v7.0781h-5.25zm5.25 3.8125v5.7031h2.9219c1.0195 0 1.8047-0.25 2.3594-0.75 0.5625-0.5 0.84375-1.2031 0.84375-2.1094 0-0.91406-0.28125-1.6172-0.84375-2.1094-0.55469-0.48828-1.3398-0.73438-2.3594-0.73438z"/>
  </symbol>
  <symbol id="k" overflow="visible">
   <path d="m2.3594-15.312h4.8906v15.031c0 2.0508-0.49609 3.6172-1.4844 4.7031-0.98047 1.082-2.4062 1.625-4.2812 1.625h-2.4219v-3.2188h0.85938c0.92578 0 1.5625-0.21094 1.9062-0.625 0.35156-0.41797 0.53125-1.2461 0.53125-2.4844zm0-5.9688h4.8906v4h-4.8906z"/>
  </symbol>
  <symbol id="j" overflow="visible">
   <path d="m14.719-14.828v3.9844c-0.65625-0.45703-1.3242-0.79688-2-1.0156-0.66797-0.21875-1.3594-0.32812-2.0781-0.32812-1.3672 0-2.4336 0.40234-3.2031 1.2031-0.76172 0.79297-1.1406 1.9062-1.1406 3.3438 0 1.4297 0.37891 2.543 1.1406 3.3438 0.76953 0.79297 1.8359 1.1875 3.2031 1.1875 0.75781 0 1.4844-0.10938 2.1719-0.32812 0.6875-0.22656 1.3203-0.56641 1.9062-1.0156v4c-0.76172 0.28125-1.5391 0.48828-2.3281 0.625-0.78125 0.14453-1.5742 0.21875-2.375 0.21875-2.7617 0-4.9219-0.70703-6.4844-2.125-1.5547-1.4141-2.3281-3.3828-2.3281-5.9062 0-2.5312 0.77344-4.5039 2.3281-5.9219 1.5625-1.4141 3.7227-2.125 6.4844-2.125 0.80078 0 1.5938 0.074219 2.375 0.21875 0.78125 0.13672 1.5547 0.35156 2.3281 0.64062z"/>
  </symbol>
 </defs>
 <g>
  <path d="m598.34 378.89-23.469-101.64-0.027344 0.015625c-2.3633-25.344-17.023-47.078-37.945-59.289h1.3203v-12.34c0-8.7734-5.2969-16.312-12.875-19.59v-1.082c-3.2266-7.6562-10.797-7.4375-19.656-7.4375h-15.074c-8.793 0-16.328-0.27344-19.59 7.3203v1.1758c-7.6055 3.2578-12.93 10.82-12.93 19.617v12.344h-97.312l-3.7969 4.8086h-2.3594v-22.977c0-7.0547-4.5195-11.66-8.5117-15.719-3.9492-4.0273-7.3594-7.5-7.3594-13.105 0-4.8086 2.3398-7.1445 6.4961-10.852 4.1758-3.7344 9.375-8.3828 9.375-17.332 0-8.9492-5.1953-13.598-9.375-17.332-4.1562-3.707-6.4961-6.043-6.4961-10.852 0-5.6055 3.4102-9.0781 7.3594-13.105 3.9922-4.0586 8.5117-8.6641 8.5117-15.719 0-2.3203-1.8828-4.1992-4.1992-4.1992-2.3203 0-4.1992 1.8828-4.1992 4.1992 0 3.4453-2.3203 5.9805-6.1055 9.832-4.3516 4.4297-9.7656 9.9414-9.7656 18.988 0 8.8047 5.1523 13.422 9.2969 17.121 4.1992 3.7539 6.5742 6.1211 6.5742 11.07 0 4.9492-2.375 7.3203-6.5742 11.07-4.1445 3.6953-9.2969 8.3086-9.2969 17.121 0 9.043 5.4141 14.559 9.7656 18.988 3.7852 3.8516 6.1055 6.3906 6.1055 9.832v22.977h-2.7344l-4.1758-4.8086-97.41 0.003907v-12.359c0-8.7969-5.3203-16.359-12.93-19.617v-1.1758c-3.2578-7.5898-10.797-7.3203-19.59-7.3203h-15.082c-8.8594 0-16.43-0.21875-19.656 7.4375v1.082c-7.5781 3.2773-12.875 10.812-12.875 19.59v12.344h1.3203c-20.906 12.215-35.582 33.941-37.945 59.289l-0.027344-0.015625-23.469 101.64c-6.0156 27.613-6.8828 56.965 15.617 76.539 5.75 6.6523 13.602 12.473 24.168 17.059 41.277 17.902 69.559-6.9648 86.688-45.965l17.375-35.723c8.043 11.137 21.102 18.418 35.902 18.418 21.785 0 39.828-15.707 43.547-36.398h50.172c3.7188 20.691 21.773 36.398 43.547 36.398 14.773 0 27.805-7.2461 35.844-18.34l17.336 35.645c17.129 39 45.406 63.867 86.684 45.965 10.574-4.5859 18.426-10.398 24.168-17.062 22.527-19.57 21.656-48.926 15.641-76.535zm-396.5-144.32 6.5586 5.7891h-13.105zm-14 16.328c0-3.0898 2.5039-5.6016 5.6016-5.6016h16.801c3.0977 0 5.6016 2.5078 5.6016 5.6016v12.812c0 3.0977-9.2227 13.184-12.312 13.184h-3.3672c-3.0898 0-12.32-10.09-12.32-13.184zm-32.465 42.488-5.7891-6.5625 5.7891-6.5469zm12.875 5.1172c-3.0977 0-5.6016-2.5039-5.6016-5.6016l-0.011719-16.801c0-3.0977 2.5078-5.6016 5.6016-5.6016l12.82-0.003906c3.0898 0 13.184 9.2227 13.184 12.32l0.003906 3.3672c0 3.0898-10.09 12.32-13.184 12.32zm33.602 40.602-6.5586-5.8008h13.105zm13.98-21.012c0 3.0977-2.5039 5.6016-5.6016 5.6016h-16.801c-3.0977 0-5.6016-2.5039-5.6016-5.6016v-12.82c0-3.0898 9.2305-13.184 12.32-13.184h3.3672c3.0898 0 12.312 10.09 12.312 13.184zm25.199-25.211c0.011719 3.0977-2.5039 5.6016-5.5898 5.6016l-12.82 0.003907c-3.0977 0-13.188-9.2227-13.188-12.312v-3.3711c0-3.0898 10.086-12.32 13.184-12.32l12.82-0.003906c3.0859 0 5.6016 2.5039 5.6016 5.6016v16.801zm7.2812-12.605 5.7891 6.5586-5.7891 6.5508zm61.051 78.695c-0.015625 0.94531-0.074219 1.8828-0.17188 2.8047-0.050781 0.45312-0.12891 0.89453-0.20312 1.3398-0.11719 0.72266-0.24609 1.4453-0.41016 2.1523-0.10547 0.4375-0.21094 0.86719-0.33594 1.293-0.20703 0.73438-0.44141 1.457-0.69922 2.168-0.125 0.35156-0.25391 0.72266-0.39062 1.0703-0.375 0.93359-0.80078 1.8555-1.2656 2.7383-5.1523 9.8281-15.438 16.547-27.273 16.547-10.668 0-20.082-5.4531-25.609-13.707v-0.003906c-0.74609-1.1133-1.3945-2.2891-1.9922-3.5-0.11328-0.22266-0.21875-0.44141-0.32422-0.67188-1.1367-2.4531-1.9531-5.0742-2.418-7.8164-0.042969-0.29297-0.089844-0.57812-0.12891-0.86328-0.18359-1.3789-0.32031-2.7812-0.32031-4.2188 0-12.395 7.3594-23.066 17.922-27.957 3.9219-1.8086 8.2773-2.8555 12.867-2.8555 2.832 0 5.5625 0.41406 8.1641 1.1328 13.02 3.5938 22.629 15.52 22.629 29.68-0.003906 0.21875-0.03125 0.44531-0.039062 0.66797zm142.59 3.4961c-0.042969 0.33984-0.10156 0.67188-0.15234 1.0117-0.23047 1.3398-0.51562 2.6719-0.91406 3.9414v0.003907c-0.39844 1.293-0.91406 2.5352-1.4766 3.7539-0.12891 0.28516-0.26953 0.56641-0.40234 0.83984-0.59375 1.1914-1.2422 2.3516-1.9805 3.4453-5.5391 8.2148-14.926 13.625-25.555 13.625-11.73 0-21.945-6.5977-27.145-16.273-0.53125-0.99219-1.0039-2.0234-1.4219-3.0781-0.11719-0.28516-0.21094-0.58203-0.32031-0.86328-0.29297-0.79688-0.55469-1.5977-0.77734-2.4141-0.10156-0.35938-0.19531-0.72266-0.28125-1.0859-0.19141-0.80469-0.34766-1.6289-0.46875-2.4531-0.050781-0.35156-0.11719-0.69531-0.15625-1.0547-0.13281-1.1719-0.22266-2.3594-0.22266-3.5664 0-16.996 13.816-30.812 30.789-30.812 16.98 0 30.801 13.816 30.801 30.812 0.003906 1.418-0.13281 2.8008-0.31641 4.168zm7.7461-57.574c-10.047 0-18.199-8.1523-18.199-18.195 0-10.039 8.1523-18.211 18.199-18.211 10.031 0 18.188 8.1719 18.188 18.211s-8.1602 18.195-18.188 18.195zm38.453 38.449c-10.047 0-18.199-8.1523-18.199-18.188 0-10.039 8.1523-18.211 18.199-18.211 10.031 0 18.188 8.1719 18.188 18.211 0.003907 10.035-8.1562 18.188-18.188 18.188zm38.434-38.449c-10.047 0-18.199-8.1523-18.199-18.188 0-10.039 8.1523-18.219 18.199-18.219 10.031 0 18.188 8.1758 18.188 18.219 0 10.031-8.1562 18.188-18.188 18.188zm-30.117 13.922-6.332 6.3281 6.332 6.3281c0.54688 0.54688 0.54688 1.4336 0 1.9805-0.27344 0.27344-0.62891 0.41016-0.99219 0.41016-0.35156 0-0.71875-0.13281-0.99219-0.41016l-6.332-6.3281-6.3281 6.3281c-0.27344 0.27344-0.63281 0.41016-0.99219 0.41016s-0.71875-0.13281-0.99219-0.41016c-0.54687-0.54688-0.54687-1.4336 0-1.9805l6.3281-6.3281-6.3281-6.3281c-0.54687-0.54687-0.54687-1.4336 0-1.9805 0.54688-0.54688 1.4297-0.55469 1.9805 0l6.3281 6.3281 6.332-6.3281c0.55469-0.55469 1.4336-0.54688 1.9805 0 0.55859 0.54688 0.55859 1.4297 0.007813 1.9805zm30.121-42.629c-5.7891 0-10.5 4.7148-10.5 10.5 0 5.7969 4.7109 10.504 10.5 10.504 5.7891 0 10.5-4.7109 10.5-10.504 0-5.7852-4.707-10.5-10.5-10.5zm0 18.207c-4.2461 0-7.6992-3.457-7.6992-7.707 0-4.2461 3.457-7.6992 7.6992-7.6992 4.2461 0 7.6992 3.457 7.6992 7.6992 0.003907 4.25-3.4531 7.707-7.6992 7.707zm-38.449-53.105 6.8711 11.473h-13.734zm18.203 6.9531c0 10.035-8.1602 18.184-18.188 18.184-10.047 0-18.199-8.1484-18.199-18.184 0-10.039 8.1523-18.211 18.199-18.211 10.027 0 18.188 8.1719 18.188 18.211zm-6.3906 7.3203-11.809-19.723-11.793 19.723zm-172.64 102.48v-5.6016h25.445v5.6016m2.9531-17.191h-31.352v-18.898h31.344v18.898zm-36.367-44.715h-31.348v-18.91h31.348zm41.125 0.90625v-20.719l31.605 7.3398v6.0469zm96.141-17.27v13.844h-13.844v-13.844h13.844m2.8008-2.8008h-19.441v19.441h19.441z"/>
  <use x="70" y="644" xlink:href="#x"/>
  <use x="90.550781" y="644" xlink:href="#c"/>
  <use x="104.359375" y="644" xlink:href="#a"/>
  <use x="123.347656" y="644" xlink:href="#e"/>
  <use x="142.242188" y="644" xlink:href="#b"/>
  <use x="155.628906" y="644" xlink:href="#a"/>
  <use x="174.617188" y="644" xlink:href="#i"/>
  <use x="204.410156" y="644" xlink:href="#h"/>
  <use x="224.453125" y="644" xlink:href="#g"/>
  <use x="252.453125" y="644" xlink:href="#f"/>
  <use x="274.121094" y="644" xlink:href="#e"/>
  <use x="293.015625" y="644" xlink:href="#w"/>
  <use x="302.613281" y="644" xlink:href="#b"/>
  <use x="316" y="644" xlink:href="#a"/>
  <use x="334.988281" y="644" xlink:href="#c"/>
  <use x="358.546875" y="644" xlink:href="#v"/>
  <use x="379.886719" y="644" xlink:href="#u"/>
  <use x="389.484375" y="644" xlink:href="#t"/>
  <use x="406.148438" y="644" xlink:href="#s"/>
  <use x="426.195312" y="644" xlink:href="#d"/>
  <use x="70" y="672" xlink:href="#r"/>
  <use x="82.183594" y="672" xlink:href="#c"/>
  <use x="95.992188" y="672" xlink:href="#d"/>
  <use x="115.226562" y="672" xlink:href="#q"/>
  <use x="154.152344" y="672" xlink:href="#b"/>
  <use x="167.535156" y="672" xlink:href="#p"/>
  <use x="187.46875" y="672" xlink:href="#a"/>
  <use x="216.207031" y="672" xlink:href="#o"/>
  <use x="239.640625" y="672" xlink:href="#d"/>
  <use x="258.878906" y="672" xlink:href="#n"/>
  <use x="278.8125" y="672" xlink:href="#m"/>
  <use x="308.492188" y="672" xlink:href="#l"/>
  <use x="329.015625" y="672" xlink:href="#c"/>
  <use x="342.820312" y="672" xlink:href="#d"/>
  <use x="362.058594" y="672" xlink:href="#k"/>
  <use x="371.65625" y="672" xlink:href="#a"/>
  <use x="390.648438" y="672" xlink:href="#j"/>
  <use x="407.242188" y="672" xlink:href="#b"/>
 </g>
</svg>
